<?xml version="1.0" encoding="UTF-8" standalone="no"?>
<!-- Created with Inkscape (http://www.inkscape.org/) -->

<svg
   width="210mm"
   height="105mm"
   viewBox="0 0 210 105"
   version="1.1"
   id="svg5"
   xml:space="preserve"
   inkscape:version="1.2.1 (9c6d41e410, 2022-07-14)"
   sodipodi:docname="Lenard window tube labeled.svg"
   xmlns:inkscape="http://www.inkscape.org/namespaces/inkscape"
   xmlns:sodipodi="http://sodipodi.sourceforge.net/DTD/sodipodi-0.dtd"
   xmlns="http://www.w3.org/2000/svg"
   xmlns:svg="http://www.w3.org/2000/svg"><sodipodi:namedview
     id="namedview7"
     pagecolor="#ffffff"
     bordercolor="#000000"
     borderopacity="0.25"
     inkscape:showpageshadow="2"
     inkscape:pageopacity="0.0"
     inkscape:pagecheckerboard="0"
     inkscape:deskcolor="#d1d1d1"
     inkscape:document-units="mm"
     showgrid="false"
     inkscape:zoom="0.72754395"
     inkscape:cx="378.67128"
     inkscape:cy="273.52299"
     inkscape:window-width="1366"
     inkscape:window-height="695"
     inkscape:window-x="0"
     inkscape:window-y="0"
     inkscape:window-maximized="1"
     inkscape:current-layer="layer1" /><defs
     id="defs2"><rect
       x="4.0496792"
       y="-13.249168"
       width="789.085"
       height="109.63753"
       id="rect4063" /><rect
       x="373.65402"
       y="251.52594"
       width="313.89832"
       height="150.95831"
       id="rect2086" /><rect
       x="373.65402"
       y="251.52594"
       width="313.89832"
       height="150.95831"
       id="rect2086-2" /><rect
       x="373.65402"
       y="251.52594"
       width="313.89832"
       height="150.95831"
       id="rect2086-2-1" /><rect
       x="373.65402"
       y="251.52594"
       width="313.89832"
       height="150.95831"
       id="rect2086-7" /><rect
       x="373.65402"
       y="251.52594"
       width="313.89832"
       height="150.95831"
       id="rect2086-8" /><rect
       x="373.65402"
       y="251.52594"
       width="313.89832"
       height="150.95831"
       id="rect2086-2-9" /><rect
       x="373.65402"
       y="251.52594"
       width="313.89832"
       height="150.95831"
       id="rect2086-2-1-2" /></defs><g
     inkscape:label="Layer 1"
     inkscape:groupmode="layer"
     id="layer1"><g
       id="g4000"
       transform="translate(0.40604242,-15.829955)"><path
         style="fill:#000000;stroke-width:0.201582"
         d="m 147.05731,116.56868 c -0.32782,-0.50032 -0.3622,-2.30095 -0.50706,-26.558458 -0.0855,-14.311967 -0.20542,-26.315838 -0.26656,-26.675274 -0.0838,-0.492923 -0.24522,-0.691066 -0.65668,-0.806327 -0.30004,-0.08403 -11.92988,-0.125346 -25.8441,-0.09181 -13.91422,0.03355 -42.715291,0.07888 -64.002383,0.100788 l -38.703806,0.03978 -1.343038,0.755937 -1.343037,0.755927 h -3.53221 c -3.5645821,0 -4.5663634,0.150526 -4.5663634,0.686155 0,0.161127 -0.1425489,0.435501 -0.3167769,0.609729 -0.3878685,0.387874 -2.2056521,0.436202 -2.4368769,0.06477 C 3.4521355,65.311316 3.3244279,61.433371 3.2546163,56.832265 3.1415448,49.379772 3.0874813,48.36757 2.7593066,47.559473 2.2491325,46.303203 2.2172705,41.116342 2.7100893,39.551939 c 0.3839372,-1.21869 0.5027761,-3.199484 0.7652534,-12.755442 0.2067911,-7.528121 0.1944638,-7.458543 1.3210264,-7.458543 0.8273472,0 1.3036097,0.611821 1.4297857,1.836706 l 0.1165228,1.131177 1.6377356,0.127506 c 0.900755,0.07022 2.7931728,0.128059 4.2053818,0.12872 l 2.567646,0.0019 0.509009,0.806326 c 0.279963,0.443476 0.530555,0.822345 0.556885,0.841913 0.02629,0.01955 31.751723,0.099 70.500878,0.176504 49.343127,0.09869 71.020977,0.207704 72.348547,0.363822 4.95457,0.582662 7.44841,2.036016 9.85187,5.741445 0.66712,1.028492 2.66573,5.31353 2.66573,5.715321 0,0.02733 0.49505,0.415263 1.10011,0.862231 l 1.10009,0.812696 11.14603,0.0088 c 11.73595,0.0097 12.107,0.03569 13.09619,0.929493 0.4949,0.447202 1.23486,1.866253 1.58673,3.042908 0.25328,0.846941 0.26676,0.856687 1.1818,0.854158 0.63104,-0.0019 1.31054,-0.198961 2.13511,-0.619737 1.81163,-0.924466 3.10785,-0.587768 3.92825,1.020381 0.54045,1.059323 0.52002,1.216881 -0.27707,2.138507 -0.64373,0.744256 -0.74666,0.788927 -1.79598,0.779201 -0.8794,-0.0078 -1.28357,-0.128439 -1.92493,-0.572907 -1.01721,-0.704916 -2.3726,-1.042294 -2.79132,-0.694791 -0.16301,0.135295 -0.55154,0.750325 -0.8634,1.366745 -1.05786,2.090987 -1.96067,2.728425 -4.28012,3.021988 -0.8084,0.102315 -5.55184,0.233098 -10.54101,0.290607 -5.80382,0.06691 -9.47054,0.190149 -10.1799,0.342124 -1.42855,0.30608 -2.3695,1.249968 -3.02195,3.031373 -1.50443,4.107551 -3.57178,6.917098 -6.13303,8.334817 -2.18017,1.206786 -3.72784,1.586432 -6.54364,1.605125 -2.39497,0.01595 -2.50774,0.03579 -2.81359,0.496093 -0.6864,1.033064 -0.80161,17.678792 -0.12946,18.705767 0.33256,0.508095 1.52551,0.792195 4.12773,0.982957 3.75838,0.275522 5.29921,0.717841 6.00355,1.723439 0.36475,0.520738 0.50943,0.493808 1.87485,-0.348981 1.03966,-0.641707 1.30137,-0.719134 2.11918,-0.626963 1.18427,0.133496 1.70889,0.646852 1.83879,1.799368 0.0856,0.758952 0.0183,0.985894 -0.46114,1.55564 -0.54353,0.645958 -0.6013,0.664525 -1.82441,0.586641 -0.81517,-0.05184 -1.39789,-0.202404 -1.64316,-0.424366 -0.55611,-0.503271 -1.15182,-0.422595 -1.93093,0.261468 -1.09223,0.958992 -1.98029,1.213137 -5.34401,1.529332 -3.42031,0.321515 -4.36898,0.537272 -4.64467,1.056328 -0.32754,0.616654 -0.46448,3.72135 -0.59541,13.499694 l -0.12982,9.69466 -0.70553,0.73109 c -0.38805,0.40209 -1.38588,1.04983 -2.21741,1.4394 -0.83152,0.38958 -1.93234,0.92726 -2.44626,1.19487 -1.2025,0.62616 -1.69379,0.61459 -2.12934,-0.0502 z m 2.62834,-1.59091 c 2.54851,-0.9193 3.70225,-1.83763 2.92635,-2.32926 -0.84849,-0.53763 -2.14184,-0.023 -3.73915,1.48758 -1.60469,1.51764 -1.46425,1.66305 0.8128,0.84168 z m -0.44769,-2.71035 c 1.04351,-0.82485 1.27092,-0.89283 2.73164,-0.8166 0.6957,0.0364 0.88627,-0.0373 1.10524,-0.42649 0.20249,-0.35995 0.29507,-2.69446 0.3944,-9.94473 0.12726,-9.289247 0.25121,-11.022383 0.84472,-11.811981 0.54035,-0.718823 1.54076,-0.987946 4.81628,-1.295592 3.98913,-0.374667 4.51939,-0.464455 4.8098,-0.814379 0.34335,-0.413716 -0.1474,-0.470748 -5.8565,-0.680485 -2.82719,-0.103871 -5.48535,-0.290781 -5.90702,-0.415369 -0.42167,-0.124597 -1.04,-0.470747 -1.37407,-0.769242 -0.88951,-0.794781 -0.96962,-1.891889 -0.97719,-13.383484 l -0.007,-10.020228 -0.87444,-0.512452 c -0.90537,-0.530581 -2.14929,-0.690493 -2.14929,-0.276291 0,0.129888 0.24946,0.832907 0.55435,1.562264 l 0.55435,1.326102 -0.0143,24.542641 c -0.008,13.498456 0.0628,24.542646 0.15712,24.542646 0.0943,0 0.63046,-0.36285 1.19151,-0.80633 z m 19.93261,-26.608857 c 0,-0.310262 -0.13439,-0.403173 -0.58318,-0.403173 -0.32075,0 -0.63198,0.127214 -0.69164,0.282671 -0.14902,0.388341 0.0329,0.523665 0.70367,0.523665 0.43676,0 0.57115,-0.09483 0.57115,-0.403163 z m -5.7451,-0.587029 0.60475,-0.136161 -0.56098,-0.147871 c -0.30855,-0.08131 -2.24527,-0.367693 -4.30382,-0.636359 -2.30672,-0.301061 -3.92683,-0.609058 -4.22239,-0.802727 -0.74379,-0.48735 -1.10492,-1.400932 -1.30491,-3.301215 -0.2231,-2.119766 -0.22995,-14.869449 -0.009,-16.213962 0.30781,-1.870639 1.50354,-2.466149 5.52639,-2.752301 2.17615,-0.154796 2.51604,-0.235452 3.92373,-0.931167 0.84766,-0.418938 1.98966,-1.178007 2.53779,-1.686821 1.26593,-1.175158 2.72031,-3.386715 3.55262,-5.402171 0.9224,-2.233567 2.04852,-3.635598 3.38816,-4.21824 1.32514,-0.576341 2.89302,-0.705276 10.72324,-0.881799 8.11309,-0.182913 10.02945,-0.34156 12.05854,-0.998274 1.12465,-0.363988 0.6827,-0.370971 -24.73939,-0.390734 l -25.8845,-0.02013 0.11848,6.369556 c 0.0652,3.503258 0.16285,6.413934 0.21709,6.468165 0.0543,0.05427 0.80885,0.182553 1.67692,0.285151 0.86809,0.102587 1.96762,0.330414 2.44342,0.506285 1.61159,0.595666 1.53354,0.04134 1.6866,11.977213 0.0844,6.584564 0.21949,10.921168 0.3559,11.427745 0.28327,1.051971 0.64352,1.332852 1.90734,1.487093 1.39358,0.170075 9.54718,0.169063 10.30374,-0.0019 z M 60.178603,61.065513 h 41.121167 l -0.1294,-5.795482 c -0.0712,-3.187521 -0.13057,-6.453159 -0.13201,-7.256966 l -0.002,-1.461465 h -6.115462 c -3.363506,0 -8.715518,-0.06001 -11.89336,-0.133244 l -5.777891,-0.133243 v -0.749197 c 0,-0.95731 -0.386627,-1.28751 -1.305621,-1.115111 -0.831889,0.15607 -1.016402,0.453349 -1.179384,1.900157 -0.145582,1.292334 -0.395035,1.641704 -1.172165,1.641704 h -0.584075 l 0.05441,-4.283617 0.05441,-4.283618 0.464656,-0.06594 c 0.771248,-0.109338 0.997679,0.282689 1.1487,1.988739 l 0.142053,1.604813 h 1.090983 c 1.04837,0 1.104133,-0.02762 1.427432,-0.705537 l 0.336449,-0.705538 h 11.75494 11.755225 V 33.549502 25.586998 H 53.764703 6.2920726 L 6.2817876,30.173 c -0.00533,2.522296 -0.083145,6.055821 -0.1722091,7.852272 -0.1812603,3.655973 -0.3882038,4.293061 -1.3945027,4.293061 -0.8381812,0 -1.0435856,0.345188 -1.0435856,1.753764 v 1.269964 l 0.8567255,0.0029 c 0.4711959,0.0019 0.9760825,0.07878 1.1219608,0.171281 0.205115,0.130073 0.3047544,1.740031 0.4395548,7.102696 0.1587771,6.316151 0.2817607,7.759468 0.721887,8.47161 0.1123317,0.181756 1.6155714,0.207792 6.1970577,0.107353 3.326805,-0.07294 24.553273,-0.132611 47.169919,-0.132611 z M 143.16646,47.974842 v -3.414734 l -0.75594,-0.06254 c -0.60069,-0.0498 -0.75594,-0.145352 -0.75594,-0.465729 0,-0.320368 0.15525,-0.416011 0.75594,-0.465729 l 0.75594,-0.06254 v -4.825801 -4.82581 H 123.00823 102.85 v 3.830064 3.830065 h 0.87352 c 0.96727,0 1.16708,0.104008 1.00605,0.523656 -0.0706,0.184031 -0.42217,0.28267 -1.00741,0.28267 -0.86174,0 -0.8963,0.02295 -0.83516,0.554351 0.0593,0.515263 0.14197,0.56146 1.17248,0.655139 0.94073,0.08549 1.10871,0.161886 1.10871,0.503961 0,0.349409 -0.15455,0.411216 -1.15909,0.463619 -1.13548,0.05923 -1.1591,0.07255 -1.1591,0.655139 0,0.570427 0.037,0.594693 0.90711,0.594693 0.77273,0 0.90712,0.05972 0.90712,0.403163 0,0.343427 -0.13439,0.403163 -0.90712,0.403163 H 102.85 v 2.284598 c 0,1.256533 0.0605,2.345073 0.13438,2.418989 0.0739,0.07392 9.14512,0.134391 20.15823,0.134391 h 20.02385 z m -35.98718,-1.632483 c -0.25138,-0.406742 0.22704,-0.622995 1.2365,-0.558883 0.71391,0.04532 0.98563,0.145945 0.98563,0.364951 0,0.377292 -2.00089,0.551919 -2.22213,0.193932 z m 4.6364,0 c -0.25139,-0.406742 0.22704,-0.622995 1.23649,-0.558883 0.71393,0.04532 0.98564,0.145945 0.98564,0.364951 0,0.377292 -2.00089,0.551919 -2.22213,0.193932 z m 4.63639,0 c -0.25139,-0.406742 0.22705,-0.622995 1.23649,-0.558883 0.71393,0.04532 0.98565,0.145945 0.98565,0.364951 0,0.377292 -2.0009,0.551919 -2.22214,0.193932 z m 4.63639,0 c -0.25137,-0.406742 0.22705,-0.622995 1.2365,-0.558883 0.71392,0.04532 0.98564,0.145945 0.98564,0.364951 0,0.377292 -2.0009,0.551919 -2.22214,0.193932 z m 4.74191,-0.193932 c 0,-0.354291 0.13439,-0.403154 1.1087,-0.403154 0.97432,0 1.10872,0.04882 1.10872,0.403154 0,0.3543 -0.1344,0.403173 -1.10872,0.403173 -0.97431,0 -1.1087,-0.04882 -1.1087,-0.403173 z m 4.6364,0 c 0,-0.354291 0.13439,-0.403154 1.10871,-0.403154 0.97431,0 1.1087,0.04882 1.1087,0.403154 0,0.3543 -0.13439,0.403173 -1.1087,0.403173 -0.97432,0 -1.10871,-0.04882 -1.10871,-0.403173 z m 4.77984,0.277836 c -0.0789,-0.07888 -0.14344,-0.268918 -0.14344,-0.422274 0,-0.212081 0.27752,-0.264366 1.1591,-0.218383 0.86904,0.04532 1.15909,0.136122 1.15909,0.362821 0,0.220902 -0.27367,0.318393 -1.01566,0.361828 -0.55861,0.03268 -1.0802,-0.0049 -1.15909,-0.08403 z m 4.58901,-0.08393 c -0.25138,-0.406752 0.22705,-0.622995 1.2365,-0.558893 0.71392,0.04532 0.98564,0.145945 0.98564,0.36496 0,0.377283 -2.0009,0.55191 -2.22214,0.193933 z m -31.27035,-2.113979 c -0.21437,-0.558629 0.22073,-0.721429 1.76281,-0.659583 1.33799,0.05359 1.49232,0.101547 1.49232,0.463016 0,0.363481 -0.15402,0.408959 -1.5653,0.462091 -1.28873,0.04853 -1.58732,0.0019 -1.68983,-0.265524 z m 6.65785,0.01469 c -0.21278,-0.554477 0.1529,-0.715205 1.62717,-0.715205 1.47074,0 1.78667,0.151547 1.57584,0.755937 -0.1339,0.383877 -3.05433,0.346734 -3.20301,-0.04075 z m 6.65563,0.0088 c -0.21747,-0.566722 0.14319,-0.724095 1.65934,-0.724095 1.45477,0 1.51148,0.0177 1.44958,0.453562 -0.0591,0.416303 -0.18471,0.458435 -1.5288,0.512851 -1.15291,0.04668 -1.48901,-0.0049 -1.58012,-0.242328 z m 6.71457,0.157421 c -0.0783,-0.07829 -0.14237,-0.312499 -0.14237,-0.520427 0,-0.342211 0.14805,-0.372468 1.56226,-0.319171 1.40825,0.0531 1.56227,0.09862 1.56227,0.462043 0,0.359475 -0.15386,0.409485 -1.41989,0.461547 -0.78093,0.0321 -1.48395,-0.0058 -1.56227,-0.08403 z m 6.45236,-0.13582 c -0.22973,-0.598652 0.17014,-0.765615 1.6879,-0.70478 1.33976,0.05369 1.49411,0.101528 1.49411,0.463055 0,0.362811 -0.15387,0.409008 -1.53762,0.461586 -1.16283,0.04415 -1.56363,-0.0097 -1.64439,-0.219861 z m -27.81901,-2.080561 c -0.0789,-0.07888 -0.14345,-0.268918 -0.14345,-0.422274 0,-0.212071 0.27753,-0.264357 1.1591,-0.218383 0.86905,0.04532 1.15909,0.136122 1.15909,0.36283 0,0.220902 -0.27365,0.318393 -1.01565,0.361829 -0.5586,0.03268 -1.0802,-0.0049 -1.15909,-0.08403 z m 4.58901,-0.08393 c -0.25139,-0.406743 0.22704,-0.622996 1.23649,-0.558883 0.71393,0.04532 0.98564,0.145945 0.98564,0.36495 0,0.377293 -2.00089,0.55191 -2.22213,0.193933 z m 4.63639,0 c -0.25139,-0.406743 0.22705,-0.622996 1.23649,-0.558883 0.71393,0.04532 0.98565,0.145945 0.98565,0.36495 0,0.377293 -2.0009,0.55191 -2.22214,0.193933 z m 4.64724,0.01751 c -0.25794,-0.417343 0.13691,-0.61465 1.23005,-0.61465 0.94981,0 1.10183,0.05135 1.04452,0.352764 -0.0516,0.271651 -0.30587,0.366643 -1.10546,0.413083 -0.57465,0.03336 -1.09677,-0.03414 -1.16911,-0.151187 z m 4.73106,-0.200954 c 0,-0.367723 0.12485,-0.413696 1.12349,-0.413696 0.96114,0 1.1138,0.05096 1.05642,0.352764 -0.0518,0.272652 -0.30701,0.366613 -1.12348,0.413706 -0.95079,0.05485 -1.05643,0.01955 -1.05643,-0.352774 z m 4.6364,-0.0105 c 0,-0.354291 0.13439,-0.403163 1.10871,-0.403163 0.97431,0 1.1087,0.04882 1.1087,0.403163 0,0.354301 -0.13439,0.403163 -1.1087,0.403163 -0.97432,0 -1.10871,-0.04882 -1.10871,-0.403163 z m 4.77984,0.277837 c -0.0789,-0.07888 -0.14344,-0.268919 -0.14344,-0.422285 0,-0.21207 0.27752,-0.264356 1.1591,-0.218373 0.86904,0.04532 1.15909,0.136113 1.15909,0.362821 0,0.220902 -0.27367,0.318393 -1.01566,0.361828 -0.55861,0.03268 -1.0802,-0.0049 -1.15909,-0.08403 z m 4.58901,-0.08393 c -0.25138,-0.406742 0.22705,-0.622995 1.2365,-0.558893 0.71392,0.04532 0.98564,0.145955 0.98564,0.364961 0,0.377292 -2.0009,0.551909 -2.22214,0.193932 z m -38.79987,2.930604 v -0.50401 H 89.747145 78.458532 v 0.503952 0.503961 h 11.288613 11.288605 z m 97.04032,0.185043 c 0.0673,-0.175366 0.12235,-0.402152 0.12235,-0.503951 0,-0.111477 -10.62366,-0.185092 -26.70965,-0.185092 h -26.70966 v 0.503952 0.503951 h 26.58731 c 24.05818,0 26.59892,-0.03034 26.70965,-0.31886 z m 6.65995,-0.956385 c 0.44852,-0.327974 0.27609,-1.065325 -0.29125,-1.245388 -0.50999,-0.161866 -1.20679,0.226815 -1.20679,0.673171 0,0.765487 0.81041,1.07504 1.49804,0.572217 z M 101.03575,42.821993 V 42.318041 H 89.747145 78.458532 v 0.503952 0.503961 h 11.288613 11.288605 z m 97.16267,0.241899 c 0,-0.752824 0.25185,-0.745851 -26.95155,-0.745851 h -26.46776 v 0.503952 0.503961 h 26.70966 c 21.78122,0 26.70965,-0.04834 26.70965,-0.262062 z m -18.19638,-1.92839 c 11.27226,-0.09454 16.84765,-0.210243 16.98993,-0.352512 0.35945,-0.359465 0.002,-0.845317 -0.96543,-1.313857 -0.91404,-0.442484 -1.06315,-0.44938 -11.2202,-0.518598 -5.66161,-0.03851 -10.7671,-0.119238 -11.34556,-0.179246 -0.89177,-0.09249 -1.20902,-0.250517 -2.08597,-1.038968 -0.82677,-0.743352 -1.2813,-1.429623 -2.26582,-3.421173 -0.67737,-1.370218 -1.82505,-3.281452 -2.55042,-4.247184 -1.17935,-1.57017 -1.47496,-1.833924 -2.79471,-2.493625 -3.04784,-1.523515 -5.46605,-1.89399 -13.794,-2.113248 l -5.19075,-0.136667 v 7.888374 7.888374 l 2.77176,0.06225 c 5.44824,0.12239 15.93023,0.114658 32.45117,-0.02393 z"
         id="path2030" /><g
         aria-label="A"
         transform="matrix(0.50939455,0,0,0.50939455,-65.051,-95.96326)"
         id="text2084"
         style="font-size:17.3136px;-inkscape-font-specification:sans-serif;white-space:pre;shape-inside:url(#rect2086);stroke:#000000;stroke-width:3.77953;stroke-linecap:round;stroke-dasharray:5.33396, 10.6679"><path
           d="m 384.30216,267.26345 v 0.27702 h -4.25914 v -0.27702 q 0.83105,-0.0866 1.09075,-0.2597 0.25971,-0.17314 0.25971,-0.65792 0,-0.13851 -0.0346,-0.45015 l -0.34627,-2.26808 h -3.809 l -0.98687,1.95643 q -0.34627,0.69255 -0.34627,1.07345 0,0.32896 0.17313,0.43284 0.19045,0.10388 0.84837,0.17313 v 0.27702 h -3.23764 v -0.27702 q 0.53672,-0.10388 0.88299,-0.5194 0.36359,-0.41553 1.35046,-2.11226 l 5.02095,-8.6568 h 0.45015 l 1.62748,9.79949 q 0.17313,0.95225 0.3809,1.19464 0.20776,0.22508 0.93493,0.29433 z m -6.73499,-4.25914 h 3.35884 l -0.7618,-4.50154 z"
           style="font-style:italic;font-family:FreeSerif;-inkscape-font-specification:'FreeSerif Italic';stroke:none"
           id="path3982" /></g><text
         xml:space="preserve"
         transform="matrix(0.50939455,0,0,0.50939455,-174.13444,-52.219999)"
         id="text2084-0"
         style="font-size:15.9285px;font-family:sans-serif;-inkscape-font-specification:sans-serif;white-space:pre;shape-inside:url(#rect2086-7);display:inline;fill:#000000;stroke:#000000;stroke-width:3.77953;stroke-linecap:round;stroke-dasharray:5.33396, 10.6679;stroke-dashoffset:0;stroke-opacity:1"><tspan
           x="373.6543"
           y="265.87306"
           id="tspan4149"><tspan
             style="font-family:'Liberation Sans';-inkscape-font-specification:'Liberation Sans';stroke:none"
             id="tspan4147">: Cyclindrical Anode Electrode
</tspan></tspan><tspan
           x="373.6543"
           y="286.03837"
           id="tspan4153"><tspan
             style="font-family:'Liberation Sans';-inkscape-font-specification:'Liberation Sans';stroke:none"
             id="tspan4151">: Metal Plate Cathode Electrode
</tspan></tspan><tspan
           x="373.6543"
           y="306.20369"
           id="tspan4157"><tspan
             style="font-family:'Liberation Sans';-inkscape-font-specification:'Liberation Sans';stroke:none"
             id="tspan4155">: Small Hole Covered By 
</tspan></tspan><tspan
           x="373.6543"
           y="326.369"
           id="tspan4161"><tspan
             style="font-family:'Liberation Sans';-inkscape-font-specification:'Liberation Sans';stroke:none"
             id="tspan4159">  Thin Alluminium Foil</tspan></tspan></text><g
         aria-label="A"
         transform="matrix(0.50939455,0,0,0.50939455,-181.53836,-52.967249)"
         id="text2084-7"
         style="font-size:17.3136px;-inkscape-font-specification:sans-serif;white-space:pre;shape-inside:url(#rect2086-8);display:inline;stroke:#000000;stroke-width:3.77953;stroke-linecap:round;stroke-dasharray:5.33396, 10.6679"><path
           d="m 384.30216,267.26345 v 0.27702 h -4.25914 v -0.27702 q 0.83105,-0.0866 1.09075,-0.2597 0.25971,-0.17314 0.25971,-0.65792 0,-0.13851 -0.0346,-0.45015 l -0.34627,-2.26808 h -3.809 l -0.98687,1.95643 q -0.34627,0.69255 -0.34627,1.07345 0,0.32896 0.17313,0.43284 0.19045,0.10388 0.84837,0.17313 v 0.27702 h -3.23764 v -0.27702 q 0.53672,-0.10388 0.88299,-0.5194 0.36359,-0.41553 1.35046,-2.11226 l 5.02095,-8.6568 h 0.45015 l 1.62748,9.79949 q 0.17313,0.95225 0.3809,1.19464 0.20776,0.22508 0.93493,0.29433 z m -6.73499,-4.25914 h 3.35884 l -0.7618,-4.50154 z"
           style="font-style:italic;font-family:FreeSerif;-inkscape-font-specification:'FreeSerif Italic';stroke:none"
           id="path3973" /></g><g
         aria-label="W"
         transform="matrix(0.50939455,0,0,0.50939455,-183.63739,-90.085712)"
         id="text2084-9"
         style="font-size:17.3136px;-inkscape-font-specification:sans-serif;white-space:pre;shape-inside:url(#rect2086-2);display:inline;stroke:#000000;stroke-width:3.77953;stroke-linecap:round;stroke-dasharray:5.33396, 10.6679"><path
           d="m 390.32729,256.23469 v 0.27702 q -0.50209,0.15582 -0.72717,0.3809 -0.22507,0.20776 -0.57135,0.86568 l -5.24602,10.09383 h -0.34627 l -0.86568,-7.86038 h -0.0866 l -3.84362,7.86038 h -0.32895 l -1.07345,-8.95114 q -0.0346,-0.22507 -0.0866,-0.60597 -0.0346,-0.3809 -0.0519,-0.5021 -0.0173,-0.1385 -0.0693,-0.3809 -0.0519,-0.2597 -0.10388,-0.32895 -0.0519,-0.0693 -0.13851,-0.20777 -0.0866,-0.13851 -0.22508,-0.17313 -0.12119,-0.0519 -0.29433,-0.10388 -0.15582,-0.0519 -0.39821,-0.0866 v -0.27702 h 4.08601 v 0.27702 q -0.79643,0.0866 -1.03882,0.27702 -0.22508,0.17313 -0.22508,0.67523 0,0.15582 0.0173,0.24239 l 0.7618,7.02932 2.97794,-6.02514 -0.15583,-1.19463 q -0.0866,-0.64061 -0.31164,-0.79643 -0.22508,-0.17314 -0.98688,-0.20776 v -0.27702 h 4.12064 v 0.27702 q -0.69254,0.0693 -0.93493,0.27702 -0.24239,0.20776 -0.24239,0.74448 l 0.70985,7.20246 3.23765,-6.37141 q 0.36358,-0.72717 0.36358,-1.16001 0,-0.36358 -0.22507,-0.48478 -0.20777,-0.13851 -0.90031,-0.20776 v -0.27702 z"
           style="font-style:italic;font-family:FreeSerif;-inkscape-font-specification:'FreeSerif Italic';stroke:none"
           id="path3976" /></g><g
         aria-label="W"
         transform="matrix(0.50939455,0,0,0.50939455,-183.63739,-31.650926)"
         id="text2084-9-20"
         style="font-size:17.3136px;-inkscape-font-specification:sans-serif;white-space:pre;shape-inside:url(#rect2086-2-9);display:inline;stroke:#000000;stroke-width:3.77953;stroke-linecap:round;stroke-dasharray:5.33396, 10.6679"><path
           d="m 390.32729,256.23469 v 0.27702 q -0.50209,0.15582 -0.72717,0.3809 -0.22507,0.20776 -0.57135,0.86568 l -5.24602,10.09383 h -0.34627 l -0.86568,-7.86038 h -0.0866 l -3.84362,7.86038 h -0.32895 l -1.07345,-8.95114 q -0.0346,-0.22507 -0.0866,-0.60597 -0.0346,-0.3809 -0.0519,-0.5021 -0.0173,-0.1385 -0.0693,-0.3809 -0.0519,-0.2597 -0.10388,-0.32895 -0.0519,-0.0693 -0.13851,-0.20777 -0.0866,-0.13851 -0.22508,-0.17313 -0.12119,-0.0519 -0.29433,-0.10388 -0.15582,-0.0519 -0.39821,-0.0866 v -0.27702 h 4.08601 v 0.27702 q -0.79643,0.0866 -1.03882,0.27702 -0.22508,0.17313 -0.22508,0.67523 0,0.15582 0.0173,0.24239 l 0.7618,7.02932 2.97794,-6.02514 -0.15583,-1.19463 q -0.0866,-0.64061 -0.31164,-0.79643 -0.22508,-0.17314 -0.98688,-0.20776 v -0.27702 h 4.12064 v 0.27702 q -0.69254,0.0693 -0.93493,0.27702 -0.24239,0.20776 -0.24239,0.74448 l 0.70985,7.20246 3.23765,-6.37141 q 0.36358,-0.72717 0.36358,-1.16001 0,-0.36358 -0.22507,-0.48478 -0.20777,-0.13851 -0.90031,-0.20776 v -0.27702 z"
           style="font-style:italic;font-family:FreeSerif;-inkscape-font-specification:'FreeSerif Italic';stroke:none"
           id="path3967" /></g><g
         aria-label="C"
         transform="matrix(0.50939455,0,0,0.50939455,-126.34285,-90.028386)"
         id="text2084-9-2"
         style="font-size:17.3136px;-inkscape-font-specification:sans-serif;white-space:pre;shape-inside:url(#rect2086-2-1);display:inline;stroke:#000000;stroke-width:3.77953;stroke-linecap:round;stroke-dasharray:5.33396, 10.6679"><path
           d="m 381.4281,256.00961 q 0.65792,0 1.61017,0.20777 0.96956,0.20776 1.12538,0.20776 0.46747,0 0.65792,-0.3809 h 0.36358 l -0.6406,3.44541 -0.31164,-0.0519 q -0.25971,-2.80481 -2.64898,-2.80481 -1.76599,0 -3.06451,1.33315 -1.0215,1.05613 -1.61017,2.5451 -0.57135,1.47166 -0.57135,3.01257 0,1.67942 0.79643,2.61435 0.79643,0.93493 2.23346,0.93493 1.05612,0 1.9218,-0.45015 0.883,-0.45015 2.06032,-1.59285 l 0.29433,0.24239 q -1.17732,1.36777 -2.28539,1.97375 -1.10807,0.60598 -2.44122,0.60598 -1.99106,0 -3.25496,-1.2639 -1.26389,-1.26389 -1.26389,-3.25495 0,-1.88719 0.96956,-3.58392 0.98688,-1.69673 2.61436,-2.71823 1.64479,-1.02151 3.4454,-1.02151 z"
           style="font-style:italic;font-family:FreeSerif;-inkscape-font-specification:'FreeSerif Italic';stroke:none"
           id="path3979" /></g><g
         aria-label="C"
         transform="matrix(0.50939455,0,0,0.50939455,-181.95287,-41.991934)"
         id="text2084-9-2-3"
         style="font-size:17.3136px;-inkscape-font-specification:sans-serif;white-space:pre;shape-inside:url(#rect2086-2-1-2);display:inline;stroke:#000000;stroke-width:3.77953;stroke-linecap:round;stroke-dasharray:5.33396, 10.6679"><path
           d="m 381.4281,256.00961 q 0.65792,0 1.61017,0.20777 0.96956,0.20776 1.12538,0.20776 0.46747,0 0.65792,-0.3809 h 0.36358 l -0.6406,3.44541 -0.31164,-0.0519 q -0.25971,-2.80481 -2.64898,-2.80481 -1.76599,0 -3.06451,1.33315 -1.0215,1.05613 -1.61017,2.5451 -0.57135,1.47166 -0.57135,3.01257 0,1.67942 0.79643,2.61435 0.79643,0.93493 2.23346,0.93493 1.05612,0 1.9218,-0.45015 0.883,-0.45015 2.06032,-1.59285 l 0.29433,0.24239 q -1.17732,1.36777 -2.28539,1.97375 -1.10807,0.60598 -2.44122,0.60598 -1.99106,0 -3.25496,-1.2639 -1.26389,-1.26389 -1.26389,-3.25495 0,-1.88719 0.96956,-3.58392 0.98688,-1.69673 2.61436,-2.71823 1.64479,-1.02151 3.4454,-1.02151 z"
           style="font-style:italic;font-family:FreeSerif;-inkscape-font-specification:'FreeSerif Italic';stroke:none"
           id="path3970" /></g></g><text
       xml:space="preserve"
       transform="matrix(0.26458333,0,0,0.26458333,-1.2045776,-1.6532789)"
       id="text4061"
       style="font-style:normal;font-variant:normal;font-weight:normal;font-stretch:normal;font-size:12px;font-family:'Liberation Sans';-inkscape-font-specification:'Liberation Sans';white-space:pre;shape-inside:url(#rect4063);display:inline;fill:#000000;stroke:none;stroke-width:3.77953;stroke-linecap:round;stroke-dasharray:5.33396, 10.6679;stroke-dashoffset:0;stroke-opacity:1"><tspan
         x="4.0488281"
         y="-2.4409469"
         id="tspan4165"><tspan
           style="font-family:monospace;-inkscape-font-specification:monospace"
           id="tspan4163">Made by Tan Siret Akıncı</tspan></tspan></text></g></svg>
