<?xml version="1.0" encoding="UTF-8" standalone="no"?>
<svg width="157.692mm" height="128.411mm"
 viewBox="0 0 447 364"
 xmlns="http://www.w3.org/2000/svg" xmlns:xlink="http://www.w3.org/1999/xlink"  version="1.2" baseProfile="tiny">
<title>Qt SVG Document</title>
<desc>MATLAB, The MathWorks, Inc. Version 25.1.0.2973910 R2025a Update 1</desc>
<defs>
</defs>
<g fill="none" stroke="black" stroke-width="1" fill-rule="evenodd" stroke-linecap="square" stroke-linejoin="bevel" >

<g fill="#ffffff" fill-opacity="1" stroke="none" transform="matrix(0.75,0,0,0.75,-39.2857,-21.75)"
font-family=".AppleSystemUIFont" font-size="13" font-weight="400" font-style="normal" 
>
<path vector-effect="none" fill-rule="evenodd" d="M51,28 L648,28 L648,515 L51,515 L51,28"/>
</g>

<g fill="#ffffff" fill-opacity="1" stroke="none" transform="matrix(7.5e-05,0,0,7.5e-05,-39.2857,-21.75)"
font-family=".AppleSystemUIFont" font-size="13" font-weight="400" font-style="normal" 
>
<path vector-effect="none" fill-rule="evenodd" d="M1.03314e+06,390000 L1.03314e+06,4.58e+06 L6.38686e+06,4.58e+06 L6.38686e+06,390000 L1.03314e+06,390000"/>
</g>

<g fill="#212121" fill-opacity="0.14902" stroke="#212121" stroke-opacity="0.14902" stroke-width="1.6" stroke-linecap="butt" stroke-linejoin="round" transform="matrix(0.75,0,0,0.75,-39.2857,-21.75)"
font-family=".AppleSystemUIFont" font-size="13" font-weight="400" font-style="normal" 
>
<polyline fill="none" vector-effect="none" points="224.091,39 224.091,458 " />
<polyline fill="none" vector-effect="none" points="355.029,39 355.029,458 " />
<polyline fill="none" vector-effect="none" points="485.966,39 485.966,458 " />
<polyline fill="none" vector-effect="none" points="616.904,39 616.904,458 " />
<polyline fill="none" vector-effect="none" points="103.314,458 638.686,458 " />
<polyline fill="none" vector-effect="none" points="103.314,405.625 638.686,405.625 " />
<polyline fill="none" vector-effect="none" points="103.314,353.25 638.686,353.25 " />
<polyline fill="none" vector-effect="none" points="103.314,300.875 638.686,300.875 " />
<polyline fill="none" vector-effect="none" points="103.314,248.5 638.686,248.5 " />
<polyline fill="none" vector-effect="none" points="103.314,196.125 638.686,196.125 " />
<polyline fill="none" vector-effect="none" points="103.314,143.75 638.686,143.75 " />
<polyline fill="none" vector-effect="none" points="103.314,91.375 638.686,91.375 " />
<polyline fill="none" vector-effect="none" points="103.314,39 638.686,39 " />
</g>

<g fill="#212121" fill-opacity="1" stroke="#212121" stroke-opacity="1" stroke-width="1" stroke-linecap="square" stroke-linejoin="bevel" transform="matrix(0.75,0,0,0.75,223.589,362.45)"
font-family="Georgia" font-size="23" font-weight="400" font-style="normal" 
>
<text fill="#212121" fill-opacity="1" stroke="none" xml:space="preserve" x="0" y="0.078125" font-family="Georgia" font-size="23" font-weight="400" font-style="normal" 
 >mm</text>
</g>

<g fill="#212121" fill-opacity="1" stroke="#212121" stroke-opacity="1" stroke-width="1.6" stroke-linecap="square" stroke-linejoin="round" transform="matrix(0.75,0,0,0.75,-39.2857,-21.75)"
font-family="Georgia" font-size="23" font-weight="400" font-style="normal" 
>
<polyline fill="none" vector-effect="none" points="103.314,458 638.686,458 " />
<polyline fill="none" vector-effect="none" points="224.091,458 224.091,452.646 " />
<polyline fill="none" vector-effect="none" points="355.029,458 355.029,452.646 " />
<polyline fill="none" vector-effect="none" points="485.966,458 485.966,452.646 " />
<polyline fill="none" vector-effect="none" points="616.904,458 616.904,452.646 " />
</g>

<g fill="#212121" fill-opacity="1" stroke="#212121" stroke-opacity="1" stroke-width="1" stroke-linecap="square" stroke-linejoin="bevel" transform="matrix(0.75,0,0,0.75,121.658,341.2)"
font-family="Georgia" font-size="21" font-weight="400" font-style="normal" 
>
<text fill="#212121" fill-opacity="1" stroke="none" xml:space="preserve" x="0" y="0.25" font-family="Georgia" font-size="21" font-weight="400" font-style="normal" 
 >-5</text>
</g>

<g fill="#212121" fill-opacity="1" stroke="#212121" stroke-opacity="1" stroke-width="1" stroke-linecap="square" stroke-linejoin="bevel" transform="matrix(0.75,0,0,0.75,222.111,341.2)"
font-family="Georgia" font-size="21" font-weight="400" font-style="normal" 
>
<text fill="#212121" fill-opacity="1" stroke="none" xml:space="preserve" x="0" y="0.25" font-family="Georgia" font-size="21" font-weight="400" font-style="normal" 
 >0</text>
</g>

<g fill="#212121" fill-opacity="1" stroke="#212121" stroke-opacity="1" stroke-width="1" stroke-linecap="square" stroke-linejoin="bevel" transform="matrix(0.75,0,0,0.75,321.064,341.2)"
font-family="Georgia" font-size="21" font-weight="400" font-style="normal" 
>
<text fill="#212121" fill-opacity="1" stroke="none" xml:space="preserve" x="0" y="0.25" font-family="Georgia" font-size="21" font-weight="400" font-style="normal" 
 >5</text>
</g>

<g fill="#212121" fill-opacity="1" stroke="#212121" stroke-opacity="1" stroke-width="1" stroke-linecap="square" stroke-linejoin="bevel" transform="matrix(0.75,0,0,0.75,415.142,341.2)"
font-family="Georgia" font-size="21" font-weight="400" font-style="normal" 
>
<text fill="#212121" fill-opacity="1" stroke="none" xml:space="preserve" x="0" y="0.25" font-family="Georgia" font-size="21" font-weight="400" font-style="normal" 
 >10</text>
</g>

<g fill="#212121" fill-opacity="1" stroke="#212121" stroke-opacity="1" stroke-width="1" stroke-linecap="square" stroke-linejoin="bevel" transform="matrix(0,-0.75,0.75,0,9.75,180)"
font-family="Georgia" font-size="23" font-weight="400" font-style="normal" 
>
<text fill="#212121" fill-opacity="1" stroke="none" xml:space="preserve" x="0" y="0.078125" font-family="Georgia" font-size="23" font-weight="400" font-style="normal" 
 >mm</text>
</g>

<g fill="#212121" fill-opacity="1" stroke="#212121" stroke-opacity="1" stroke-width="1.6" stroke-linecap="square" stroke-linejoin="round" transform="matrix(0.75,0,0,0.75,-39.2857,-21.75)"
font-family="Georgia" font-size="23" font-weight="400" font-style="normal" 
>
<polyline fill="none" vector-effect="none" points="103.314,458 103.314,39 " />
<polyline fill="none" vector-effect="none" points="103.314,458 108.668,458 " />
<polyline fill="none" vector-effect="none" points="103.314,405.625 108.668,405.625 " />
<polyline fill="none" vector-effect="none" points="103.314,353.25 108.668,353.25 " />
<polyline fill="none" vector-effect="none" points="103.314,300.875 108.668,300.875 " />
<polyline fill="none" vector-effect="none" points="103.314,248.5 108.668,248.5 " />
<polyline fill="none" vector-effect="none" points="103.314,196.125 108.668,196.125 " />
<polyline fill="none" vector-effect="none" points="103.314,143.75 108.668,143.75 " />
<polyline fill="none" vector-effect="none" points="103.314,91.375 108.668,91.375 " />
<polyline fill="none" vector-effect="none" points="103.314,39 108.668,39 " />
</g>

<g fill="#212121" fill-opacity="1" stroke="#212121" stroke-opacity="1" stroke-width="1" stroke-linecap="square" stroke-linejoin="bevel" transform="matrix(0.75,0,0,0.75,18,327)"
font-family="Georgia" font-size="21" font-weight="400" font-style="normal" 
>
<text fill="#212121" fill-opacity="1" stroke="none" xml:space="preserve" x="0" y="0.25" font-family="Georgia" font-size="21" font-weight="400" font-style="normal" 
 >-8</text>
</g>

<g fill="#212121" fill-opacity="1" stroke="#212121" stroke-opacity="1" stroke-width="1" stroke-linecap="square" stroke-linejoin="bevel" transform="matrix(0.75,0,0,0.75,18,287.719)"
font-family="Georgia" font-size="21" font-weight="400" font-style="normal" 
>
<text fill="#212121" fill-opacity="1" stroke="none" xml:space="preserve" x="0" y="0.25" font-family="Georgia" font-size="21" font-weight="400" font-style="normal" 
 >-6</text>
</g>

<g fill="#212121" fill-opacity="1" stroke="#212121" stroke-opacity="1" stroke-width="1" stroke-linecap="square" stroke-linejoin="bevel" transform="matrix(0.75,0,0,0.75,18,248.438)"
font-family="Georgia" font-size="21" font-weight="400" font-style="normal" 
>
<text fill="#212121" fill-opacity="1" stroke="none" xml:space="preserve" x="0" y="0.25" font-family="Georgia" font-size="21" font-weight="400" font-style="normal" 
 >-4</text>
</g>

<g fill="#212121" fill-opacity="1" stroke="#212121" stroke-opacity="1" stroke-width="1" stroke-linecap="square" stroke-linejoin="bevel" transform="matrix(0.75,0,0,0.75,18,209.156)"
font-family="Georgia" font-size="21" font-weight="400" font-style="normal" 
>
<text fill="#212121" fill-opacity="1" stroke="none" xml:space="preserve" x="0" y="0.25" font-family="Georgia" font-size="21" font-weight="400" font-style="normal" 
 >-2</text>
</g>

<g fill="#212121" fill-opacity="1" stroke="#212121" stroke-opacity="1" stroke-width="1" stroke-linecap="square" stroke-linejoin="bevel" transform="matrix(0.75,0,0,0.75,23.25,169.875)"
font-family="Georgia" font-size="21" font-weight="400" font-style="normal" 
>
<text fill="#212121" fill-opacity="1" stroke="none" xml:space="preserve" x="0" y="0.25" font-family="Georgia" font-size="21" font-weight="400" font-style="normal" 
 >0</text>
</g>

<g fill="#212121" fill-opacity="1" stroke="#212121" stroke-opacity="1" stroke-width="1" stroke-linecap="square" stroke-linejoin="bevel" transform="matrix(0.75,0,0,0.75,24,130.594)"
font-family="Georgia" font-size="21" font-weight="400" font-style="normal" 
>
<text fill="#212121" fill-opacity="1" stroke="none" xml:space="preserve" x="0" y="0.25" font-family="Georgia" font-size="21" font-weight="400" font-style="normal" 
 >2</text>
</g>

<g fill="#212121" fill-opacity="1" stroke="#212121" stroke-opacity="1" stroke-width="1" stroke-linecap="square" stroke-linejoin="bevel" transform="matrix(0.75,0,0,0.75,24,91.3125)"
font-family="Georgia" font-size="21" font-weight="400" font-style="normal" 
>
<text fill="#212121" fill-opacity="1" stroke="none" xml:space="preserve" x="0" y="0.25" font-family="Georgia" font-size="21" font-weight="400" font-style="normal" 
 >4</text>
</g>

<g fill="#212121" fill-opacity="1" stroke="#212121" stroke-opacity="1" stroke-width="1" stroke-linecap="square" stroke-linejoin="bevel" transform="matrix(0.75,0,0,0.75,24,52.0313)"
font-family="Georgia" font-size="21" font-weight="400" font-style="normal" 
>
<text fill="#212121" fill-opacity="1" stroke="none" xml:space="preserve" x="0" y="0.25" font-family="Georgia" font-size="21" font-weight="400" font-style="normal" 
 >6</text>
</g>

<g fill="#212121" fill-opacity="1" stroke="#212121" stroke-opacity="1" stroke-width="1" stroke-linecap="square" stroke-linejoin="bevel" transform="matrix(0.75,0,0,0.75,23.25,12.75)"
font-family="Georgia" font-size="21" font-weight="400" font-style="normal" 
>
<text fill="#212121" fill-opacity="1" stroke="none" xml:space="preserve" x="0" y="0.25" font-family="Georgia" font-size="21" font-weight="400" font-style="normal" 
 >8</text>
</g>

<g fill="none" stroke="#000000" stroke-opacity="1" stroke-width="2.66667" stroke-linecap="butt" stroke-linejoin="round" transform="matrix(0.75,0,0,0.75,-39.2857,-21.75)"
font-family="Georgia" font-size="21" font-weight="400" font-style="normal" 
>
<polyline fill="none" vector-effect="none" points="103.314,248.5 103.539,238.306 103.763,234.087 103.988,230.852 104.212,228.127 104.437,225.728 104.661,223.56 104.886,221.569 105.11,219.716 105.335,217.978 105.559,216.334 105.784,214.773 106.008,213.281 106.233,211.852 106.457,210.478 106.682,209.153 106.906,207.873 107.131,206.633 107.355,205.429 107.58,204.26 107.804,203.122 108.029,202.013 108.253,200.93 108.478,199.873 108.702,198.839 108.927,197.828 109.151,196.837 109.376,195.866 109.6,194.913 109.825,193.978 110.049,193.06 110.273,192.157 110.498,191.27 110.722,190.396 110.947,189.537 111.171,188.691 111.396,187.858 111.62,187.036 111.845,186.227 112.069,185.428 112.294,184.641 112.518,183.863 112.743,183.096 112.967,182.338 113.192,181.59 113.416,180.851 113.641,180.12 113.865,179.398 114.09,178.684 114.314,177.978 114.539,177.28 114.763,176.589 114.988,175.905 115.212,175.229 115.437,174.559 115.661,173.896 115.886,173.24 116.11,172.59 116.335,171.946 116.559,171.308 116.784,170.676 117.008,170.05 117.233,169.429 117.457,168.814 117.682,168.204 117.906,167.599 118.131,167 118.355,166.405 118.58,165.816 118.804,165.231 119.029,164.651 119.253,164.075 119.478,163.504 119.702,162.937 119.927,162.375 120.151,161.817 120.376,161.263 120.6,160.713 120.824,160.167 121.049,159.625 121.273,159.086 121.498,158.552 121.722,158.021 121.947,157.494 122.171,156.971 122.396,156.451 122.62,155.934 122.845,155.421 123.069,154.912 123.294,154.405 123.518,153.902 123.743,153.402 123.967,152.905 124.192,152.411 124.416,151.921 124.641,151.433 124.865,150.948 125.09,150.466 125.314,149.987 125.539,149.511 " />
<polyline fill="none" vector-effect="none" points="103.314,248.5 103.539,258.694 103.763,262.913 103.988,266.148 104.212,268.873 104.437,271.272 104.661,273.44 104.886,275.431 105.11,277.284 105.335,279.022 105.559,280.666 105.784,282.227 106.008,283.719 106.233,285.148 106.457,286.522 106.682,287.847 106.906,289.127 107.131,290.367 107.355,291.571 107.58,292.74 107.804,293.878 108.029,294.987 108.253,296.07 108.478,297.127 108.702,298.161 108.927,299.172 109.151,300.163 109.376,301.134 109.6,302.087 109.825,303.022 110.049,303.94 110.273,304.843 110.498,305.73 110.722,306.604 110.947,307.463 111.171,308.309 111.396,309.142 111.62,309.964 111.845,310.773 112.069,311.572 112.294,312.359 112.518,313.137 112.743,313.904 112.967,314.662 113.192,315.41 113.416,316.149 113.641,316.88 113.865,317.602 114.09,318.316 114.314,319.022 114.539,319.72 114.763,320.411 114.988,321.095 115.212,321.771 115.437,322.441 115.661,323.104 115.886,323.76 116.11,324.41 116.335,325.054 116.559,325.692 116.784,326.324 117.008,326.95 117.233,327.571 117.457,328.186 117.682,328.796 117.906,329.401 118.131,330 118.355,330.595 118.58,331.184 118.804,331.769 119.029,332.349 119.253,332.925 119.478,333.496 119.702,334.063 119.927,334.625 120.151,335.183 120.376,335.737 120.6,336.287 120.824,336.833 121.049,337.375 121.273,337.914 121.498,338.448 121.722,338.979 121.947,339.506 122.171,340.029 122.396,340.549 122.62,341.066 122.845,341.579 123.069,342.088 123.294,342.595 123.518,343.098 123.743,343.598 123.967,344.095 124.192,344.589 124.416,345.079 124.641,345.567 124.865,346.052 125.09,346.534 125.314,347.013 125.539,347.489 " />
<polyline fill="none" vector-effect="none" points="132.854,248.5 132.929,238.524 133.003,234.392 133.078,231.222 133.153,228.549 133.227,226.195 133.302,224.067 133.377,222.11 133.451,220.289 133.526,218.578 133.601,216.961 133.675,215.422 133.75,213.952 133.825,212.543 133.899,211.186 133.974,209.878 134.049,208.612 134.123,207.386 134.198,206.195 134.273,205.037 134.347,203.909 134.422,202.809 134.497,201.735 134.571,200.685 134.646,199.658 134.721,198.653 134.795,197.667 134.87,196.7 134.945,195.751 135.019,194.819 135.094,193.903 135.169,193.002 135.243,192.115 135.318,191.243 135.393,190.383 135.467,189.536 135.542,188.702 135.617,187.879 135.691,187.067 135.766,186.265 135.841,185.474 135.915,184.693 135.99,183.921 136.065,183.159 136.139,182.405 136.214,181.66 136.289,180.924 136.363,180.195 136.438,179.474 136.513,178.761 136.587,178.055 136.662,177.356 136.737,176.664 136.811,175.978 136.886,175.299 136.961,174.627 137.035,173.96 137.11,173.3 137.185,172.645 137.259,171.996 137.334,171.353 137.409,170.715 137.484,170.082 137.558,169.454 137.633,168.832 137.708,168.214 137.782,167.601 137.857,166.993 137.932,166.389 138.006,165.79 138.081,165.195 138.156,164.604 138.23,164.018 138.305,163.436 138.38,162.857 138.454,162.283 138.529,161.713 138.604,161.146 138.678,160.583 138.753,160.024 138.828,159.468 138.902,158.916 138.977,158.367 139.052,157.822 139.126,157.28 139.201,156.741 139.276,156.205 139.35,155.673 139.425,155.144 139.5,154.617 139.574,154.094 139.649,153.574 139.724,153.056 139.798,152.542 139.873,152.03 139.948,151.521 140.022,151.014 140.097,150.511 140.172,150.01 140.246,149.511 " />
<polyline fill="none" vector-effect="none" points="132.854,248.5 132.929,258.476 133.003,262.608 133.078,265.778 133.153,268.451 133.227,270.805 133.302,272.933 133.377,274.89 133.451,276.711 133.526,278.422 133.601,280.039 133.675,281.578 133.75,283.048 133.825,284.457 133.899,285.814 133.974,287.122 134.049,288.388 134.123,289.614 134.198,290.805 134.273,291.963 134.347,293.091 134.422,294.191 134.497,295.265 134.571,296.315 134.646,297.342 134.721,298.347 134.795,299.333 134.87,300.3 134.945,301.249 135.019,302.181 135.094,303.097 135.169,303.998 135.243,304.885 135.318,305.757 135.393,306.617 135.467,307.464 135.542,308.298 135.617,309.121 135.691,309.933 135.766,310.735 135.841,311.526 135.915,312.307 135.99,313.079 136.065,313.841 136.139,314.595 136.214,315.34 136.289,316.076 136.363,316.805 136.438,317.526 136.513,318.239 136.587,318.945 136.662,319.644 136.737,320.336 136.811,321.022 136.886,321.701 136.961,322.373 137.035,323.04 137.11,323.7 137.185,324.355 137.259,325.004 137.334,325.647 137.409,326.285 137.484,326.918 137.558,327.546 137.633,328.168 137.708,328.786 137.782,329.399 137.857,330.007 137.932,330.611 138.006,331.21 138.081,331.805 138.156,332.396 138.23,332.982 138.305,333.564 138.38,334.143 138.454,334.717 138.529,335.287 138.604,335.854 138.678,336.417 138.753,336.976 138.828,337.532 138.902,338.084 138.977,338.633 139.052,339.178 139.126,339.72 139.201,340.259 139.276,340.795 139.35,341.327 139.425,341.856 139.5,342.383 139.574,342.906 139.649,343.426 139.724,343.944 139.798,344.458 139.873,344.97 139.948,345.479 140.022,345.986 140.097,346.489 140.172,346.99 140.246,347.489 " />
<polyline fill="none" vector-effect="none" points="133.797,248.5 134.099,238.94 134.401,234.987 134.703,231.958 135.005,229.409 135.307,227.166 135.609,225.142 135.911,223.283 136.213,221.555 136.515,219.935 136.817,218.405 137.119,216.952 137.421,215.566 137.723,214.238 138.025,212.963 138.328,211.734 138.63,210.548 138.932,209.4 139.234,208.286 139.536,207.205 139.838,206.154 140.14,205.131 140.442,204.133 140.744,203.159 141.046,202.207 141.348,201.277 141.65,200.366 141.952,199.474 142.254,198.6 142.556,197.743 142.859,196.902 143.161,196.076 143.463,195.264 143.765,194.467 144.067,193.683 144.369,192.911 144.671,192.152 144.973,191.404 145.275,190.667 145.577,189.942 145.879,189.227 146.181,188.521 146.483,187.826 146.785,187.14 147.087,186.463 147.39,185.795 147.692,185.135 147.994,184.483 148.296,183.84 148.598,183.204 148.9,182.575 149.202,181.954 149.504,181.34 149.806,180.733 150.108,180.133 150.41,179.539 150.712,178.952 151.014,178.371 151.316,177.796 151.618,177.227 151.921,176.663 152.223,176.106 152.525,175.553 152.827,175.007 153.129,174.465 153.431,173.929 153.733,173.397 154.035,172.871 154.337,172.349 154.639,171.832 154.941,171.32 155.243,170.813 155.545,170.309 155.847,169.811 156.149,169.316 156.452,168.826 156.754,168.34 157.056,167.857 157.358,167.379 157.66,166.905 157.962,166.435 158.264,165.968 158.566,165.505 158.868,165.046 159.17,164.591 159.472,164.139 159.774,163.69 160.076,163.245 160.378,162.803 160.68,162.365 160.983,161.93 161.285,161.498 161.587,161.069 161.889,160.643 162.191,160.221 162.493,159.801 162.795,159.385 163.097,158.971 163.399,158.561 163.701,158.153 " />
<polyline fill="none" vector-effect="none" points="133.797,248.5 134.099,258.06 134.401,262.013 134.703,265.042 135.005,267.591 135.307,269.834 135.609,271.858 135.911,273.717 136.213,275.445 136.515,277.065 136.817,278.595 137.119,280.048 137.421,281.434 137.723,282.762 138.025,284.037 138.328,285.266 138.63,286.452 138.932,287.6 139.234,288.714 139.536,289.795 139.838,290.846 140.14,291.869 140.442,292.867 140.744,293.841 141.046,294.793 141.348,295.723 141.65,296.634 141.952,297.526 142.254,298.4 142.556,299.257 142.859,300.098 143.161,300.924 143.463,301.736 143.765,302.533 144.067,303.317 144.369,304.089 144.671,304.848 144.973,305.596 145.275,306.333 145.577,307.058 145.879,307.773 146.181,308.479 146.483,309.174 146.785,309.86 147.087,310.537 147.39,311.205 147.692,311.865 147.994,312.517 148.296,313.16 148.598,313.796 148.9,314.425 149.202,315.046 149.504,315.66 149.806,316.267 150.108,316.867 150.41,317.461 150.712,318.048 151.014,318.629 151.316,319.204 151.618,319.773 151.921,320.337 152.223,320.894 152.525,321.447 152.827,321.993 153.129,322.535 153.431,323.071 153.733,323.603 154.035,324.129 154.337,324.651 154.639,325.168 154.941,325.68 155.243,326.188 155.545,326.691 155.847,327.189 156.149,327.684 156.452,328.174 156.754,328.66 157.056,329.143 157.358,329.621 157.66,330.095 157.962,330.565 158.264,331.032 158.566,331.495 158.868,331.954 159.17,332.409 159.472,332.861 159.774,333.31 160.076,333.755 160.378,334.197 160.68,334.635 160.983,335.07 161.285,335.502 161.587,335.931 161.889,336.357 162.191,336.779 162.493,337.199 162.795,337.615 163.097,338.029 163.399,338.439 163.701,338.847 " />
<polyline fill="none" vector-effect="none" points="165.418,248.5 165.549,239.327 165.681,235.529 165.812,232.615 165.943,230.16 166.075,227.997 166.206,226.043 166.338,224.246 166.469,222.574 166.6,221.004 166.732,219.52 166.863,218.108 166.994,216.76 167.126,215.467 167.257,214.224 167.389,213.025 167.52,211.865 167.651,210.741 167.783,209.651 167.914,208.59 168.046,207.558 168.177,206.551 168.308,205.568 168.44,204.608 168.571,203.668 168.702,202.749 168.834,201.847 168.965,200.964 169.096,200.096 169.228,199.245 169.359,198.408 169.491,197.585 169.622,196.776 169.753,195.979 169.885,195.195 170.016,194.422 170.148,193.661 170.279,192.91 170.41,192.17 170.542,191.439 170.673,190.718 170.804,190.006 170.936,189.304 171.067,188.609 171.199,187.923 171.33,187.245 171.461,186.574 171.593,185.911 171.724,185.256 171.855,184.607 171.987,183.965 172.118,183.329 172.25,182.7 172.381,182.078 172.512,181.461 172.644,180.85 172.775,180.245 172.906,179.645 173.038,179.051 173.169,178.462 173.301,177.879 173.432,177.3 173.563,176.726 173.695,176.157 173.826,175.593 173.957,175.033 174.089,174.478 174.22,173.927 174.352,173.38 174.483,172.838 174.614,172.299 174.746,171.765 174.877,171.234 175.008,170.708 175.14,170.185 175.271,169.666 175.403,169.15 175.534,168.638 175.665,168.13 175.797,167.625 175.928,167.123 176.059,166.624 176.191,166.129 176.322,165.637 176.454,165.148 176.585,164.662 176.716,164.179 176.848,163.699 176.979,163.222 177.11,162.748 177.242,162.277 177.373,161.808 177.505,161.342 177.636,160.879 177.767,160.418 177.899,159.96 178.03,159.505 178.161,159.052 178.293,158.601 178.424,158.153 " />
<polyline fill="none" vector-effect="none" points="165.418,248.5 165.549,257.673 165.681,261.471 165.812,264.385 165.943,266.84 166.075,269.003 166.206,270.957 166.338,272.754 166.469,274.426 166.6,275.996 166.732,277.48 166.863,278.892 166.994,280.24 167.126,281.533 167.257,282.776 167.389,283.975 167.52,285.135 167.651,286.259 167.783,287.349 167.914,288.41 168.046,289.442 168.177,290.449 168.308,291.432 168.44,292.392 168.571,293.332 168.702,294.251 168.834,295.153 168.965,296.036 169.096,296.904 169.228,297.755 169.359,298.592 169.491,299.415 169.622,300.224 169.753,301.021 169.885,301.805 170.016,302.578 170.148,303.339 170.279,304.09 170.41,304.83 170.542,305.561 170.673,306.282 170.804,306.994 170.936,307.696 171.067,308.391 171.199,309.077 171.33,309.755 171.461,310.426 171.593,311.089 171.724,311.744 171.855,312.393 171.987,313.035 172.118,313.671 172.25,314.3 172.381,314.922 172.512,315.539 172.644,316.15 172.775,316.755 172.906,317.355 173.038,317.949 173.169,318.538 173.301,319.121 173.432,319.7 173.563,320.274 173.695,320.843 173.826,321.407 173.957,321.967 174.089,322.522 174.22,323.073 174.352,323.62 174.483,324.162 174.614,324.701 174.746,325.235 174.877,325.766 175.008,326.292 175.14,326.815 175.271,327.334 175.403,327.85 175.534,328.362 175.665,328.87 175.797,329.375 175.928,329.877 176.059,330.376 176.191,330.871 176.322,331.363 176.454,331.852 176.585,332.338 176.716,332.821 176.848,333.301 176.979,333.778 177.11,334.252 177.242,334.723 177.373,335.192 177.505,335.658 177.636,336.121 177.767,336.582 177.899,337.04 178.03,337.495 178.161,337.948 178.293,338.399 178.424,338.847 " />
<polyline fill="none" vector-effect="none" points="191.147,248.5 191.484,240.291 191.821,236.9 192.158,234.305 192.495,232.123 192.832,230.205 193.169,228.476 193.506,226.89 193.843,225.418 194.18,224.038 194.517,222.737 194.854,221.503 195.191,220.327 195.528,219.202 195.865,218.122 196.202,217.083 196.539,216.08 196.876,215.111 197.213,214.173 197.55,213.263 197.887,212.379 198.224,211.519 198.561,210.682 198.898,209.866 199.235,209.07 199.572,208.292 199.908,207.531 200.245,206.788 200.582,206.06 200.919,205.347 201.256,204.648 201.593,203.962 201.93,203.29 202.267,202.63 202.604,201.981 202.941,201.344 203.278,200.718 203.615,200.103 203.952,199.497 204.289,198.901 204.626,198.314 204.963,197.737 205.3,197.168 205.637,196.607 205.974,196.055 206.311,195.511 206.648,194.974 206.985,194.445 207.322,193.922 207.659,193.407 207.996,192.899 208.333,192.397 208.67,191.902 209.007,191.413 209.344,190.93 209.681,190.454 210.018,189.982 210.355,189.517 210.692,189.057 211.029,188.603 211.366,188.154 211.702,187.71 212.039,187.271 212.376,186.838 212.713,186.409 213.05,185.984 213.387,185.565 213.724,185.15 214.061,184.739 214.398,184.333 214.735,183.931 215.072,183.534 215.409,183.141 215.746,182.751 216.083,182.366 216.42,181.985 216.757,181.607 217.094,181.233 217.431,180.863 217.768,180.497 218.105,180.135 218.442,179.775 218.779,179.42 219.116,179.068 219.453,178.719 219.79,178.374 220.127,178.032 220.464,177.693 220.801,177.357 221.138,177.025 221.475,176.696 221.812,176.369 222.149,176.046 222.486,175.726 222.823,175.409 223.16,175.094 223.496,174.783 223.833,174.474 224.17,174.169 224.507,173.866 " />
<polyline fill="none" vector-effect="none" points="191.147,248.5 191.484,256.709 191.821,260.1 192.158,262.695 192.495,264.877 192.832,266.795 193.169,268.524 193.506,270.11 193.843,271.582 194.18,272.962 194.517,274.263 194.854,275.497 195.191,276.673 195.528,277.798 195.865,278.878 196.202,279.917 196.539,280.92 196.876,281.889 197.213,282.827 197.55,283.737 197.887,284.621 198.224,285.481 198.561,286.318 198.898,287.134 199.235,287.93 199.572,288.708 199.908,289.469 200.245,290.212 200.582,290.94 200.919,291.653 201.256,292.352 201.593,293.038 201.93,293.71 202.267,294.37 202.604,295.019 202.941,295.656 203.278,296.282 203.615,296.897 203.952,297.503 204.289,298.099 204.626,298.686 204.963,299.263 205.3,299.832 205.637,300.393 205.974,300.945 206.311,301.489 206.648,302.026 206.985,302.556 207.322,303.078 207.659,303.593 207.996,304.101 208.333,304.603 208.67,305.098 209.007,305.587 209.344,306.07 209.681,306.547 210.018,307.018 210.355,307.483 210.692,307.943 211.029,308.397 211.366,308.846 211.702,309.29 212.039,309.729 212.376,310.162 212.713,310.591 213.05,311.016 213.387,311.435 213.724,311.85 214.061,312.261 214.398,312.667 214.735,313.069 215.072,313.466 215.409,313.859 215.746,314.249 216.083,314.634 216.42,315.015 216.757,315.393 217.094,315.767 217.431,316.137 217.768,316.503 218.105,316.865 218.442,317.225 218.779,317.58 219.116,317.932 219.453,318.281 219.79,318.626 220.127,318.968 220.464,319.307 220.801,319.643 221.138,319.975 221.475,320.304 221.812,320.631 222.149,320.954 222.486,321.274 222.823,321.591 223.16,321.906 223.496,322.217 223.833,322.526 224.17,322.831 224.507,323.134 " />
</g>

<g fill="#ff3300" fill-opacity="1" stroke="#ff3300" stroke-opacity="1" stroke-width="2.66667" stroke-linecap="butt" stroke-linejoin="round" transform="matrix(0.75,0,0,0.75,-39.2857,-21.75)"
font-family="Georgia" font-size="21" font-weight="400" font-style="normal" 
>
<polyline fill="none" vector-effect="none" points="235.967,353.25 235.967,458 " />
<polyline fill="none" vector-effect="none" points="235.967,39 235.967,143.75 " />
</g>

<g fill="none" stroke="#000000" stroke-opacity="1" stroke-width="2.66667" stroke-linecap="butt" stroke-linejoin="round" transform="matrix(0.75,0,0,0.75,-39.2857,-21.75)"
font-family="Georgia" font-size="21" font-weight="400" font-style="normal" 
>
<polyline fill="none" vector-effect="none" points="271.32,248.5 271.102,241.448 270.883,238.532 270.665,236.298 270.446,234.417 270.228,232.763 270.009,231.269 269.79,229.897 269.572,228.622 269.353,227.427 269.135,226.298 268.916,225.225 268.698,224.202 268.479,223.222 268.261,222.281 268.042,221.374 267.824,220.498 267.605,219.65 267.387,218.828 267.168,218.03 266.95,217.254 266.731,216.498 266.513,215.761 266.294,215.041 266.075,214.338 265.857,213.651 265.638,212.979 265.42,212.32 265.201,211.674 264.983,211.041 264.764,210.419 264.546,209.809 264.327,209.209 264.109,208.62 263.89,208.04 263.672,207.469 263.453,206.908 263.235,206.355 263.016,205.811 262.797,205.274 262.579,204.746 262.36,204.224 262.142,203.71 261.923,203.202 261.705,202.702 261.486,202.207 261.268,201.719 261.049,201.237 260.831,200.761 260.612,200.291 260.394,199.826 260.175,199.366 259.957,198.912 259.738,198.463 259.519,198.018 259.301,197.579 259.082,197.144 258.864,196.714 258.645,196.288 258.427,195.867 258.208,195.449 257.99,195.036 257.771,194.627 257.553,194.222 257.334,193.821 257.116,193.424 256.897,193.03 256.679,192.64 256.46,192.254 256.241,191.871 256.023,191.491 255.804,191.115 255.586,190.742 255.367,190.372 255.149,190.006 254.93,189.642 254.712,189.282 254.493,188.924 254.275,188.57 254.056,188.218 253.838,187.869 253.619,187.523 253.401,187.18 253.182,186.839 252.963,186.501 252.745,186.166 252.526,185.833 252.308,185.503 252.089,185.175 251.871,184.85 251.652,184.527 251.434,184.206 251.215,183.888 250.997,183.572 250.778,183.258 250.56,182.946 250.341,182.637 250.123,182.33 249.904,182.025 249.685,181.722 " />
<polyline fill="none" vector-effect="none" points="271.32,248.5 271.102,255.552 270.883,258.468 270.665,260.702 270.446,262.583 270.228,264.237 270.009,265.731 269.79,267.103 269.572,268.378 269.353,269.573 269.135,270.702 268.916,271.775 268.698,272.798 268.479,273.778 268.261,274.719 268.042,275.626 267.824,276.502 267.605,277.35 267.387,278.172 267.168,278.97 266.95,279.746 266.731,280.502 266.513,281.239 266.294,281.959 266.075,282.661 265.857,283.349 265.638,284.021 265.42,284.68 265.201,285.326 264.983,285.959 264.764,286.581 264.546,287.191 264.327,287.791 264.109,288.38 263.89,288.96 263.672,289.53 263.453,290.092 263.235,290.645 263.016,291.189 262.797,291.726 262.579,292.254 262.36,292.776 262.142,293.29 261.923,293.798 261.705,294.298 261.486,294.793 261.268,295.281 261.049,295.763 260.831,296.239 260.612,296.709 260.394,297.174 260.175,297.634 259.957,298.088 259.738,298.537 259.519,298.982 259.301,299.421 259.082,299.856 258.864,300.286 258.645,300.712 258.427,301.133 258.208,301.551 257.99,301.964 257.771,302.373 257.553,302.778 257.334,303.179 257.116,303.576 256.897,303.97 256.679,304.36 256.46,304.746 256.241,305.129 256.023,305.509 255.804,305.885 255.586,306.258 255.367,306.628 255.149,306.994 254.93,307.358 254.712,307.718 254.493,308.076 254.275,308.43 254.056,308.782 253.838,309.131 253.619,309.477 253.401,309.82 253.182,310.161 252.963,310.499 252.745,310.834 252.526,311.167 252.308,311.497 252.089,311.825 251.871,312.15 251.652,312.474 251.434,312.794 251.215,313.112 250.997,313.428 250.778,313.742 250.56,314.054 250.341,314.363 250.123,314.67 249.904,314.975 249.685,315.278 " />
<polyline fill="none" vector-effect="none" points="280.591,248.5 280.689,240.544 280.788,237.249 280.887,234.722 280.986,232.591 281.085,230.715 281.184,229.019 281.282,227.46 281.381,226.009 281.48,224.646 281.579,223.358 281.678,222.133 281.777,220.962 281.875,219.84 281.974,218.76 282.073,217.719 282.172,216.712 282.271,215.736 282.37,214.789 282.468,213.868 282.567,212.971 282.666,212.096 282.765,211.243 282.864,210.408 282.963,209.592 283.061,208.793 283.16,208.009 283.259,207.241 283.358,206.487 283.457,205.747 283.556,205.02 283.654,204.304 283.753,203.601 283.852,202.908 283.951,202.226 284.05,201.554 284.149,200.892 284.247,200.239 284.346,199.595 284.445,198.959 284.544,198.332 284.643,197.713 284.742,197.101 284.84,196.497 284.939,195.9 285.038,195.31 285.137,194.726 285.236,194.149 285.335,193.578 285.433,193.013 285.532,192.454 285.631,191.901 285.73,191.353 285.829,190.811 285.927,190.274 286.026,189.741 286.125,189.214 286.224,188.692 286.323,188.174 286.422,187.661 286.52,187.153 286.619,186.648 286.718,186.148 286.817,185.652 286.916,185.16 287.015,184.672 287.113,184.188 287.212,183.708 287.311,183.231 287.41,182.758 287.509,182.289 287.608,181.823 287.706,181.36 287.805,180.901 287.904,180.445 288.003,179.992 288.102,179.542 288.201,179.095 288.299,178.651 288.398,178.21 288.497,177.773 288.596,177.337 288.695,176.905 288.794,176.475 288.892,176.049 288.991,175.624 289.09,175.203 289.189,174.783 289.288,174.367 289.387,173.953 289.485,173.541 289.584,173.131 289.683,172.724 289.782,172.32 289.881,171.917 289.98,171.517 290.078,171.119 290.177,170.723 290.276,170.329 290.375,169.938 " />
<polyline fill="none" vector-effect="none" points="280.591,248.5 280.689,256.456 280.788,259.751 280.887,262.278 280.986,264.409 281.085,266.285 281.184,267.981 281.282,269.54 281.381,270.991 281.48,272.354 281.579,273.642 281.678,274.867 281.777,276.038 281.875,277.16 281.974,278.24 282.073,279.281 282.172,280.288 282.271,281.264 282.37,282.211 282.468,283.132 282.567,284.029 282.666,284.904 282.765,285.757 282.864,286.592 282.963,287.408 283.061,288.207 283.16,288.991 283.259,289.759 283.358,290.513 283.457,291.253 283.556,291.98 283.654,292.696 283.753,293.399 283.852,294.092 283.951,294.774 284.05,295.446 284.149,296.108 284.247,296.761 284.346,297.405 284.445,298.041 284.544,298.668 284.643,299.287 284.742,299.899 284.84,300.503 284.939,301.1 285.038,301.69 285.137,302.274 285.236,302.851 285.335,303.422 285.433,303.987 285.532,304.546 285.631,305.099 285.73,305.647 285.829,306.189 285.927,306.726 286.026,307.259 286.125,307.786 286.224,308.308 286.323,308.826 286.422,309.339 286.52,309.847 286.619,310.352 286.718,310.852 286.817,311.348 286.916,311.84 287.015,312.328 287.113,312.812 287.212,313.292 287.311,313.769 287.41,314.242 287.509,314.711 287.608,315.177 287.706,315.64 287.805,316.099 287.904,316.555 288.003,317.008 288.102,317.458 288.201,317.905 288.299,318.349 288.398,318.79 288.497,319.227 288.596,319.663 288.695,320.095 288.794,320.525 288.892,320.951 288.991,321.376 289.09,321.797 289.189,322.217 289.288,322.633 289.387,323.047 289.485,323.459 289.584,323.869 289.683,324.276 289.782,324.68 289.881,325.083 289.98,325.483 290.078,325.881 290.177,326.277 290.276,326.671 290.375,327.063 " />
<polyline fill="none" vector-effect="none" points="328.239,248.5 328.031,240.34 327.823,236.964 327.615,234.376 327.407,232.196 327.199,230.278 326.991,228.545 326.783,226.953 326.575,225.473 326.367,224.084 326.159,222.772 325.951,221.525 325.743,220.334 325.535,219.194 325.327,218.098 325.118,217.041 324.91,216.02 324.702,215.031 324.494,214.072 324.286,213.14 324.078,212.234 323.87,211.35 323.662,210.489 323.454,209.647 323.246,208.824 323.038,208.02 322.83,207.232 322.622,206.459 322.414,205.702 322.206,204.959 321.998,204.229 321.79,203.512 321.582,202.808 321.374,202.115 321.166,201.433 320.958,200.761 320.75,200.1 320.542,199.449 320.334,198.807 320.126,198.174 319.918,197.55 319.71,196.934 319.502,196.327 319.294,195.727 319.086,195.135 318.878,194.55 318.67,193.972 318.462,193.401 318.254,192.836 318.046,192.278 317.838,191.727 317.63,191.181 317.422,190.641 317.214,190.107 317.006,189.579 316.798,189.056 316.59,188.538 316.382,188.025 316.174,187.518 315.966,187.015 315.758,186.517 315.55,186.024 315.342,185.535 315.134,185.051 314.926,184.571 314.718,184.095 314.51,183.624 314.302,183.156 314.094,182.693 313.886,182.233 313.678,181.777 313.47,181.325 313.262,180.877 313.053,180.432 312.845,179.991 312.637,179.553 312.429,179.119 312.221,178.687 312.013,178.26 311.805,177.835 311.597,177.413 311.389,176.995 311.181,176.58 310.973,176.167 310.765,175.758 310.557,175.351 310.349,174.947 310.141,174.547 309.933,174.148 309.725,173.753 309.517,173.36 309.309,172.97 309.101,172.582 308.893,172.197 308.685,171.814 308.477,171.434 308.269,171.056 308.061,170.681 307.853,170.308 307.645,169.938 " />
<polyline fill="none" vector-effect="none" points="328.239,248.5 328.031,256.66 327.823,260.036 327.615,262.624 327.407,264.804 327.199,266.722 326.991,268.455 326.783,270.047 326.575,271.527 326.367,272.916 326.159,274.228 325.951,275.475 325.743,276.666 325.535,277.806 325.327,278.902 325.118,279.959 324.91,280.98 324.702,281.969 324.494,282.928 324.286,283.86 324.078,284.766 323.87,285.65 323.662,286.511 323.454,287.353 323.246,288.176 323.038,288.98 322.83,289.768 322.622,290.541 322.414,291.298 322.206,292.041 321.998,292.771 321.79,293.488 321.582,294.192 321.374,294.885 321.166,295.567 320.958,296.239 320.75,296.9 320.542,297.551 320.334,298.193 320.126,298.826 319.918,299.45 319.71,300.066 319.502,300.673 319.294,301.273 319.086,301.865 318.878,302.45 318.67,303.028 318.462,303.599 318.254,304.164 318.046,304.722 317.838,305.273 317.63,305.819 317.422,306.359 317.214,306.893 317.006,307.421 316.798,307.944 316.59,308.462 316.382,308.975 316.174,309.482 315.966,309.985 315.758,310.483 315.55,310.976 315.342,311.465 315.134,311.949 314.926,312.429 314.718,312.905 314.51,313.376 314.302,313.844 314.094,314.307 313.886,314.767 313.678,315.223 313.47,315.675 313.262,316.123 313.053,316.568 312.845,317.009 312.637,317.447 312.429,317.882 312.221,318.313 312.013,318.74 311.805,319.165 311.597,319.587 311.389,320.005 311.181,320.42 310.973,320.833 310.765,321.242 310.557,321.649 310.349,322.052 310.141,322.453 309.933,322.852 309.725,323.247 309.517,323.64 309.309,324.03 309.101,324.418 308.893,324.803 308.685,325.186 308.477,325.566 308.269,325.944 308.061,326.319 307.853,326.692 307.645,327.063 " />
<polyline fill="none" vector-effect="none" points="329.731,248.5 329.741,240.604 329.75,237.333 329.759,234.823 329.768,232.707 329.777,230.843 329.786,229.158 329.795,227.608 329.804,226.166 329.813,224.811 329.822,223.53 329.831,222.311 329.84,221.146 329.849,220.03 329.859,218.955 329.868,217.918 329.877,216.915 329.886,215.943 329.895,214.999 329.904,214.081 329.913,213.187 329.922,212.315 329.931,211.463 329.94,210.631 329.949,209.817 329.958,209.019 329.968,208.237 329.977,207.47 329.986,206.717 329.995,205.978 330.004,205.251 330.013,204.536 330.022,203.832 330.031,203.14 330.04,202.458 330.049,201.786 330.058,201.123 330.067,200.47 330.076,199.825 330.086,199.189 330.095,198.56 330.104,197.94 330.113,197.327 330.122,196.722 330.131,196.123 330.14,195.531 330.149,194.946 330.158,194.367 330.167,193.794 330.176,193.227 330.185,192.666 330.195,192.111 330.204,191.561 330.213,191.016 330.222,190.476 330.231,189.941 330.24,189.411 330.249,188.886 330.258,188.366 330.267,187.849 330.276,187.338 330.285,186.83 330.294,186.327 330.303,185.827 330.313,185.332 330.322,184.84 330.331,184.353 330.34,183.868 330.349,183.388 330.358,182.911 330.367,182.437 330.376,181.967 330.385,181.5 330.394,181.037 330.403,180.576 330.412,180.119 330.422,179.665 330.431,179.213 330.44,178.765 330.449,178.319 330.458,177.877 330.467,177.437 330.476,176.999 330.485,176.565 330.494,176.133 330.503,175.703 330.512,175.276 330.521,174.852 330.53,174.43 330.54,174.01 330.549,173.593 330.558,173.178 330.567,172.766 330.576,172.355 330.585,171.947 330.594,171.541 330.603,171.137 330.612,170.735 330.621,170.335 330.63,169.938 " />
<polyline fill="none" vector-effect="none" points="329.731,248.5 329.741,256.396 329.75,259.667 329.759,262.177 329.768,264.293 329.777,266.157 329.786,267.842 329.795,269.392 329.804,270.834 329.813,272.189 329.822,273.47 329.831,274.689 329.84,275.854 329.849,276.97 329.859,278.045 329.868,279.082 329.877,280.085 329.886,281.057 329.895,282.001 329.904,282.919 329.913,283.813 329.922,284.685 329.931,285.537 329.94,286.369 329.949,287.183 329.958,287.981 329.968,288.763 329.977,289.53 329.986,290.283 329.995,291.022 330.004,291.749 330.013,292.464 330.022,293.168 330.031,293.86 330.04,294.542 330.049,295.214 330.058,295.877 330.067,296.53 330.076,297.175 330.086,297.811 330.095,298.44 330.104,299.06 330.113,299.673 330.122,300.278 330.131,300.877 330.14,301.469 330.149,302.054 330.158,302.633 330.167,303.206 330.176,303.773 330.185,304.334 330.195,304.889 330.204,305.439 330.213,305.984 330.222,306.524 330.231,307.059 330.24,307.589 330.249,308.114 330.258,308.634 330.267,309.151 330.276,309.662 330.285,310.17 330.294,310.673 330.303,311.173 330.313,311.668 330.322,312.16 330.331,312.647 330.34,313.132 330.349,313.612 330.358,314.089 330.367,314.563 330.376,315.033 330.385,315.5 330.394,315.963 330.403,316.424 330.412,316.881 330.422,317.335 330.431,317.787 330.44,318.235 330.449,318.681 330.458,319.123 330.467,319.563 330.476,320.001 330.485,320.435 330.494,320.867 330.503,321.297 330.512,321.724 330.521,322.148 330.53,322.57 330.54,322.99 330.549,323.407 330.558,323.822 330.567,324.234 330.576,324.645 330.585,325.053 330.594,325.459 330.603,325.863 330.612,326.265 330.621,326.665 330.63,327.063 " />
<polyline fill="none" vector-effect="none" points="355.029,248.5 354.927,240.54 354.826,237.244 354.724,234.716 354.623,232.585 354.521,230.708 354.42,229.011 354.318,227.451 354.217,226 354.115,224.637 354.014,223.348 353.912,222.123 353.811,220.952 353.709,219.83 353.608,218.75 353.506,217.708 353.405,216.701 353.303,215.725 353.202,214.777 353.1,213.856 352.999,212.959 352.897,212.084 352.796,211.23 352.694,210.396 352.593,209.58 352.491,208.78 352.389,207.997 352.288,207.229 352.186,206.475 352.085,205.734 351.983,205.007 351.882,204.292 351.78,203.588 351.679,202.895 351.577,202.213 351.476,201.541 351.374,200.879 351.273,200.226 351.171,199.582 351.07,198.947 350.968,198.32 350.867,197.7 350.765,197.089 350.664,196.485 350.562,195.888 350.461,195.297 350.359,194.714 350.258,194.137 350.156,193.566 350.055,193.001 349.953,192.442 349.852,191.889 349.75,191.342 349.649,190.799 349.547,190.262 349.446,189.73 349.344,189.203 349.243,188.681 349.141,188.164 349.04,187.651 348.938,187.142 348.837,186.638 348.735,186.138 348.634,185.643 348.532,185.151 348.431,184.663 348.329,184.179 348.228,183.699 348.126,183.223 348.025,182.75 347.923,182.281 347.822,181.815 347.72,181.352 347.619,180.893 347.517,180.437 347.416,179.985 347.314,179.535 347.213,179.089 347.111,178.645 347.01,178.204 346.908,177.767 346.807,177.332 346.705,176.9 346.604,176.471 346.502,176.044 346.401,175.62 346.299,175.198 346.198,174.78 346.096,174.363 345.995,173.949 345.893,173.538 345.792,173.129 345.69,172.722 345.589,172.318 345.487,171.915 345.386,171.516 345.284,171.118 345.183,170.722 345.081,170.329 344.98,169.938 " />
<polyline fill="none" vector-effect="none" points="355.029,248.5 354.927,256.46 354.826,259.756 354.724,262.284 354.623,264.415 354.521,266.292 354.42,267.989 354.318,269.549 354.217,271 354.115,272.363 354.014,273.652 353.912,274.877 353.811,276.048 353.709,277.17 353.608,278.25 353.506,279.292 353.405,280.299 353.303,281.275 353.202,282.223 353.1,283.144 352.999,284.041 352.897,284.916 352.796,285.77 352.694,286.604 352.593,287.42 352.491,288.22 352.389,289.003 352.288,289.771 352.186,290.525 352.085,291.266 351.983,291.993 351.882,292.708 351.78,293.412 351.679,294.105 351.577,294.787 351.476,295.459 351.374,296.121 351.273,296.774 351.171,297.418 351.07,298.053 350.968,298.68 350.867,299.3 350.765,299.911 350.664,300.515 350.562,301.112 350.461,301.703 350.359,302.286 350.258,302.863 350.156,303.434 350.055,303.999 349.953,304.558 349.852,305.111 349.75,305.658 349.649,306.201 349.547,306.738 349.446,307.27 349.344,307.797 349.243,308.319 349.141,308.836 349.04,309.349 348.938,309.858 348.837,310.362 348.735,310.862 348.634,311.357 348.532,311.849 348.431,312.337 348.329,312.821 348.228,313.301 348.126,313.777 348.025,314.25 347.923,314.719 347.822,315.185 347.72,315.648 347.619,316.107 347.517,316.563 347.416,317.015 347.314,317.465 347.213,317.911 347.111,318.355 347.01,318.796 346.908,319.233 346.807,319.668 346.705,320.1 346.604,320.529 346.502,320.956 346.401,321.38 346.299,321.802 346.198,322.22 346.096,322.637 345.995,323.051 345.893,323.462 345.792,323.871 345.69,324.278 345.589,324.682 345.487,325.085 345.386,325.484 345.284,325.882 345.183,326.278 345.081,326.671 344.98,327.063 " />
</g>

<g fill="none" stroke="#0000ff" stroke-opacity="1" stroke-width="1.6" stroke-linecap="butt" stroke-linejoin="miter" stroke-miterlimit="2" transform="matrix(0.75,0,0,0.75,-39.2857,-21.75)"
font-family="Georgia" font-size="21" font-weight="400" font-style="normal" 
>
<path vector-effect="none" fill-rule="evenodd" d="M645.352,248.5 C645.352,244.818 642.368,241.833 638.686,241.833 C635.004,241.833 632.019,244.818 632.019,248.5 C632.019,252.182 635.004,255.167 638.686,255.167 C642.368,255.167 645.352,252.182 645.352,248.5 "/>
</g>

<g fill="none" stroke="#00ff00" stroke-opacity="1" stroke-width="1.6" stroke-linecap="butt" stroke-linejoin="miter" stroke-miterlimit="2" transform="matrix(0.75,0,0,0.75,-39.2857,-21.75)"
font-family="Georgia" font-size="21" font-weight="400" font-style="normal" 
>
<path vector-effect="none" fill-rule="evenodd" d="M249.726,248.5 C249.726,244.818 246.741,241.833 243.059,241.833 C239.377,241.833 236.393,244.818 236.393,248.5 C236.393,252.182 239.377,255.167 243.059,255.167 C246.741,255.167 249.726,252.182 249.726,248.5 "/>
</g>

<g fill="none" stroke="#ff0000" stroke-opacity="1" stroke-width="1.6" stroke-linecap="butt" stroke-linejoin="miter" stroke-miterlimit="2" transform="matrix(0.75,0,0,0.75,-39.2857,-21.75)"
font-family="Georgia" font-size="21" font-weight="400" font-style="normal" 
>
<path vector-effect="none" fill-rule="evenodd" d="M246.393,248.5 C246.393,246.659 244.9,245.167 243.059,245.167 C241.218,245.167 239.726,246.659 239.726,248.5 C239.726,250.341 241.218,251.833 243.059,251.833 C244.9,251.833 246.393,250.341 246.393,248.5 "/>
</g>

<g fill="#ffffff" fill-opacity="1" stroke="none" transform="matrix(7.5e-05,0,0,7.5e-05,-39.2857,-21.75)"
font-family="Georgia" font-size="21" font-weight="400" font-style="normal" 
>
<path vector-effect="none" fill-rule="evenodd" d="M4.17e+06,500000 L4.17e+06,1.21e+06 L6.28e+06,1.21e+06 L6.28e+06,500000 L4.17e+06,500000"/>
</g>

<g fill="none" stroke="#0000ff" stroke-opacity="1" stroke-width="1.6" stroke-linecap="butt" stroke-linejoin="miter" stroke-miterlimit="2" transform="matrix(0.75,0,0,0.75,-39.2857,-21.75)"
font-family="Georgia" font-size="21" font-weight="400" font-style="normal" 
>
<path vector-effect="none" fill-rule="evenodd" d="M435.888,63 C435.888,59.3181 432.903,56.3333 429.221,56.3333 C425.539,56.3333 422.554,59.3181 422.554,63 C422.554,66.6819 425.539,69.6667 429.221,69.6667 C432.903,69.6667 435.888,66.6819 435.888,63 "/>
</g>

<g fill="none" stroke="#00ff00" stroke-opacity="1" stroke-width="1.6" stroke-linecap="butt" stroke-linejoin="miter" stroke-miterlimit="2" transform="matrix(0.75,0,0,0.75,-39.2857,-21.75)"
font-family="Georgia" font-size="21" font-weight="400" font-style="normal" 
>
<path vector-effect="none" fill-rule="evenodd" d="M435.888,85.5 C435.888,81.8181 432.903,78.8333 429.221,78.8333 C425.539,78.8333 422.554,81.8181 422.554,85.5 C422.554,89.1819 425.539,92.1667 429.221,92.1667 C432.903,92.1667 435.888,89.1819 435.888,85.5 "/>
</g>

<g fill="none" stroke="#ff0000" stroke-opacity="1" stroke-width="1.6" stroke-linecap="butt" stroke-linejoin="miter" stroke-miterlimit="2" transform="matrix(0.75,0,0,0.75,-39.2857,-21.75)"
font-family="Georgia" font-size="21" font-weight="400" font-style="normal" 
>
<path vector-effect="none" fill-rule="evenodd" d="M432.554,108 C432.554,106.159 431.062,104.667 429.221,104.667 C427.38,104.667 425.888,106.159 425.888,108 C425.888,109.841 427.38,111.333 429.221,111.333 C431.062,111.333 432.554,109.841 432.554,108 "/>
</g>

<g fill="#212121" fill-opacity="1" stroke="#212121" stroke-opacity="1" stroke-width="1" stroke-linecap="square" stroke-linejoin="bevel" transform="matrix(0.75,0,0,0.75,291.048,30.375)"
font-family="Georgia" font-size="19" font-weight="400" font-style="normal" 
>
<text fill="#212121" fill-opacity="1" stroke="none" xml:space="preserve" x="0" y="0.421875" font-family="Georgia" font-size="19" font-weight="400" font-style="normal" 
 >Image focal point</text>
</g>

<g fill="#212121" fill-opacity="1" stroke="#212121" stroke-opacity="1" stroke-width="1" stroke-linecap="square" stroke-linejoin="bevel" transform="matrix(0.75,0,0,0.75,291.048,47.25)"
font-family="Georgia" font-size="19" font-weight="400" font-style="normal" 
>
<text fill="#212121" fill-opacity="1" stroke="none" xml:space="preserve" x="0" y="0.421875" font-family="Georgia" font-size="19" font-weight="400" font-style="normal" 
 >Image principal point</text>
</g>

<g fill="#212121" fill-opacity="1" stroke="#212121" stroke-opacity="1" stroke-width="1" stroke-linecap="square" stroke-linejoin="bevel" transform="matrix(0.75,0,0,0.75,291.048,64.125)"
font-family="Georgia" font-size="19" font-weight="400" font-style="normal" 
>
<text fill="#212121" fill-opacity="1" stroke="none" xml:space="preserve" x="0" y="0.421875" font-family="Georgia" font-size="19" font-weight="400" font-style="normal" 
 >Image nodal point</text>
</g>

<g fill="none" stroke="#212121" stroke-opacity="1" stroke-width="1.6" stroke-linecap="butt" stroke-linejoin="miter" stroke-miterlimit="2" transform="matrix(0.75,0,0,0.75,-39.2857,-21.75)"
font-family="Georgia" font-size="19" font-weight="400" font-style="normal" 
>
<path vector-effect="none" fill-rule="evenodd" d="M417,121 L417,50 L628,50 L628,121 L417,121"/>
</g>
</g>
</svg>
