<?xml version="1.0" encoding="UTF-8" standalone="no"?>
<svg width="170.039mm" height="112.889mm"
 viewBox="0 0 482 320"
 xmlns="http://www.w3.org/2000/svg" xmlns:xlink="http://www.w3.org/1999/xlink"  version="1.2" baseProfile="tiny">
<title>Qt SVG Document</title>
<desc>MATLAB, The MathWorks, Inc. Version 25.1.0.2973910 R2025a Update 1</desc>
<defs>
</defs>
<g fill="none" stroke="black" stroke-width="1" fill-rule="evenodd" stroke-linecap="square" stroke-linejoin="bevel" >

<g fill="#ffffff" fill-opacity="1" stroke="none" transform="matrix(0.75,0,0,0.75,-12.05,-47.6618)"
font-family=".AppleSystemUIFont" font-size="13" font-weight="400" font-style="normal" 
>
<path vector-effect="none" fill-rule="evenodd" d="M15,62 L659,62 L659,489 L15,489 L15,62"/>
</g>

<g fill="#ffffff" fill-opacity="1" stroke="none" transform="matrix(7.5e-05,0,0,7.5e-05,-12.05,-47.6618)"
font-family=".AppleSystemUIFont" font-size="13" font-weight="400" font-style="normal" 
>
<path vector-effect="none" fill-rule="evenodd" d="M930000,668823 L930000,4.33118e+06 L6.49e+06,4.33118e+06 L6.49e+06,668823 L930000,668823"/>
</g>

<g fill="#212121" fill-opacity="0.14902" stroke="#212121" stroke-opacity="0.14902" stroke-width="1.6" stroke-linecap="butt" stroke-linejoin="round" transform="matrix(0.75,0,0,0.75,-12.05,-47.6618)"
font-family=".AppleSystemUIFont" font-size="13" font-weight="400" font-style="normal" 
>
<polyline fill="none" vector-effect="none" points="163.317,66.8824 163.317,433.118 " />
<polyline fill="none" vector-effect="none" points="277.766,66.8824 277.766,433.118 " />
<polyline fill="none" vector-effect="none" points="392.214,66.8824 392.214,433.118 " />
<polyline fill="none" vector-effect="none" points="506.663,66.8824 506.663,433.118 " />
<polyline fill="none" vector-effect="none" points="621.111,66.8824 621.111,433.118 " />
<polyline fill="none" vector-effect="none" points="93,433.118 649,433.118 " />
<polyline fill="none" vector-effect="none" points="93,387.338 649,387.338 " />
<polyline fill="none" vector-effect="none" points="93,341.559 649,341.559 " />
<polyline fill="none" vector-effect="none" points="93,295.779 649,295.779 " />
<polyline fill="none" vector-effect="none" points="93,250 649,250 " />
<polyline fill="none" vector-effect="none" points="93,204.221 649,204.221 " />
<polyline fill="none" vector-effect="none" points="93,158.441 649,158.441 " />
<polyline fill="none" vector-effect="none" points="93,112.662 649,112.662 " />
</g>

<g fill="#212121" fill-opacity="1" stroke="#212121" stroke-opacity="1" stroke-width="1" stroke-linecap="square" stroke-linejoin="bevel" transform="matrix(0.75,0,0,0.75,250.825,317.876)"
font-family="Georgia" font-size="23" font-weight="400" font-style="normal" 
>
<text fill="#212121" fill-opacity="1" stroke="none" xml:space="preserve" x="0" y="0.078125" font-family="Georgia" font-size="23" font-weight="400" font-style="normal" 
 >mm</text>
</g>

<g fill="#212121" fill-opacity="1" stroke="#212121" stroke-opacity="1" stroke-width="1.6" stroke-linecap="square" stroke-linejoin="round" transform="matrix(0.75,0,0,0.75,-12.05,-47.6618)"
font-family="Georgia" font-size="23" font-weight="400" font-style="normal" 
>
<polyline fill="none" vector-effect="none" points="93,433.118 649,433.118 " />
<polyline fill="none" vector-effect="none" points="163.317,433.118 163.317,427.558 " />
<polyline fill="none" vector-effect="none" points="277.766,433.118 277.766,427.558 " />
<polyline fill="none" vector-effect="none" points="392.214,433.118 392.214,427.558 " />
<polyline fill="none" vector-effect="none" points="506.663,433.118 506.663,427.558 " />
<polyline fill="none" vector-effect="none" points="621.111,433.118 621.111,427.558 " />
</g>

<g fill="#212121" fill-opacity="1" stroke="#212121" stroke-opacity="1" stroke-width="1" stroke-linecap="square" stroke-linejoin="bevel" transform="matrix(0.75,0,0,0.75,89.8129,296.626)"
font-family="Georgia" font-size="21" font-weight="400" font-style="normal" 
>
<text fill="#212121" fill-opacity="1" stroke="none" xml:space="preserve" x="0" y="0.25" font-family="Georgia" font-size="21" font-weight="400" font-style="normal" 
 >-1000</text>
</g>

<g fill="#212121" fill-opacity="1" stroke="#212121" stroke-opacity="1" stroke-width="1" stroke-linecap="square" stroke-linejoin="bevel" transform="matrix(0.75,0,0,0.75,179.399,296.626)"
font-family="Georgia" font-size="21" font-weight="400" font-style="normal" 
>
<text fill="#212121" fill-opacity="1" stroke="none" xml:space="preserve" x="0" y="0.25" font-family="Georgia" font-size="21" font-weight="400" font-style="normal" 
 >-500</text>
</g>

<g fill="#212121" fill-opacity="1" stroke="#212121" stroke-opacity="1" stroke-width="1" stroke-linecap="square" stroke-linejoin="bevel" transform="matrix(0.75,0,0,0.75,277.236,296.626)"
font-family="Georgia" font-size="21" font-weight="400" font-style="normal" 
>
<text fill="#212121" fill-opacity="1" stroke="none" xml:space="preserve" x="0" y="0.25" font-family="Georgia" font-size="21" font-weight="400" font-style="normal" 
 >0</text>
</g>

<g fill="#212121" fill-opacity="1" stroke="#212121" stroke-opacity="1" stroke-width="1" stroke-linecap="square" stroke-linejoin="bevel" transform="matrix(0.75,0,0,0.75,354.072,296.626)"
font-family="Georgia" font-size="21" font-weight="400" font-style="normal" 
>
<text fill="#212121" fill-opacity="1" stroke="none" xml:space="preserve" x="0" y="0.25" font-family="Georgia" font-size="21" font-weight="400" font-style="normal" 
 >500</text>
</g>

<g fill="#212121" fill-opacity="1" stroke="#212121" stroke-opacity="1" stroke-width="1" stroke-linecap="square" stroke-linejoin="bevel" transform="matrix(0.75,0,0,0.75,435.783,296.626)"
font-family="Georgia" font-size="21" font-weight="400" font-style="normal" 
>
<text fill="#212121" fill-opacity="1" stroke="none" xml:space="preserve" x="0" y="0.25" font-family="Georgia" font-size="21" font-weight="400" font-style="normal" 
 >1000</text>
</g>

<g fill="#212121" fill-opacity="1" stroke="#212121" stroke-opacity="1" stroke-width="1" stroke-linecap="square" stroke-linejoin="bevel" transform="matrix(0,-0.75,0.75,0,9.75,155.213)"
font-family="Georgia" font-size="23" font-weight="400" font-style="normal" 
>
<text fill="#212121" fill-opacity="1" stroke="none" xml:space="preserve" x="0" y="0.078125" font-family="Georgia" font-size="23" font-weight="400" font-style="normal" 
 >mm</text>
</g>

<g fill="#212121" fill-opacity="1" stroke="#212121" stroke-opacity="1" stroke-width="1.6" stroke-linecap="square" stroke-linejoin="round" transform="matrix(0.75,0,0,0.75,-12.05,-47.6618)"
font-family="Georgia" font-size="23" font-weight="400" font-style="normal" 
>
<polyline fill="none" vector-effect="none" points="93,433.118 93,66.8824 " />
<polyline fill="none" vector-effect="none" points="93,433.118 98.56,433.118 " />
<polyline fill="none" vector-effect="none" points="93,387.338 98.56,387.338 " />
<polyline fill="none" vector-effect="none" points="93,341.559 98.56,341.559 " />
<polyline fill="none" vector-effect="none" points="93,295.779 98.56,295.779 " />
<polyline fill="none" vector-effect="none" points="93,250 98.56,250 " />
<polyline fill="none" vector-effect="none" points="93,204.221 98.56,204.221 " />
<polyline fill="none" vector-effect="none" points="93,158.441 98.56,158.441 " />
<polyline fill="none" vector-effect="none" points="93,112.662 98.56,112.662 " />
</g>

<g fill="#212121" fill-opacity="1" stroke="#212121" stroke-opacity="1" stroke-width="1" stroke-linecap="square" stroke-linejoin="bevel" transform="matrix(0.75,0,0,0.75,18,282.426)"
font-family="Georgia" font-size="21" font-weight="400" font-style="normal" 
>
<text fill="#212121" fill-opacity="1" stroke="none" xml:space="preserve" x="0" y="0.25" font-family="Georgia" font-size="21" font-weight="400" font-style="normal" 
 >-800</text>
</g>

<g fill="#212121" fill-opacity="1" stroke="#212121" stroke-opacity="1" stroke-width="1" stroke-linecap="square" stroke-linejoin="bevel" transform="matrix(0.75,0,0,0.75,18.75,248.092)"
font-family="Georgia" font-size="21" font-weight="400" font-style="normal" 
>
<text fill="#212121" fill-opacity="1" stroke="none" xml:space="preserve" x="0" y="0.25" font-family="Georgia" font-size="21" font-weight="400" font-style="normal" 
 >-600</text>
</g>

<g fill="#212121" fill-opacity="1" stroke="#212121" stroke-opacity="1" stroke-width="1" stroke-linecap="square" stroke-linejoin="bevel" transform="matrix(0.75,0,0,0.75,18.75,213.757)"
font-family="Georgia" font-size="21" font-weight="400" font-style="normal" 
>
<text fill="#212121" fill-opacity="1" stroke="none" xml:space="preserve" x="0" y="0.25" font-family="Georgia" font-size="21" font-weight="400" font-style="normal" 
 >-400</text>
</g>

<g fill="#212121" fill-opacity="1" stroke="#212121" stroke-opacity="1" stroke-width="1" stroke-linecap="square" stroke-linejoin="bevel" transform="matrix(0.75,0,0,0.75,18.75,179.423)"
font-family="Georgia" font-size="21" font-weight="400" font-style="normal" 
>
<text fill="#212121" fill-opacity="1" stroke="none" xml:space="preserve" x="0" y="0.25" font-family="Georgia" font-size="21" font-weight="400" font-style="normal" 
 >-200</text>
</g>

<g fill="#212121" fill-opacity="1" stroke="#212121" stroke-opacity="1" stroke-width="1" stroke-linecap="square" stroke-linejoin="bevel" transform="matrix(0.75,0,0,0.75,42.75,145.088)"
font-family="Georgia" font-size="21" font-weight="400" font-style="normal" 
>
<text fill="#212121" fill-opacity="1" stroke="none" xml:space="preserve" x="0" y="0.25" font-family="Georgia" font-size="21" font-weight="400" font-style="normal" 
 >0</text>
</g>

<g fill="#212121" fill-opacity="1" stroke="#212121" stroke-opacity="1" stroke-width="1" stroke-linecap="square" stroke-linejoin="bevel" transform="matrix(0.75,0,0,0.75,24.75,110.754)"
font-family="Georgia" font-size="21" font-weight="400" font-style="normal" 
>
<text fill="#212121" fill-opacity="1" stroke="none" xml:space="preserve" x="0" y="0.25" font-family="Georgia" font-size="21" font-weight="400" font-style="normal" 
 >200</text>
</g>

<g fill="#212121" fill-opacity="1" stroke="#212121" stroke-opacity="1" stroke-width="1" stroke-linecap="square" stroke-linejoin="bevel" transform="matrix(0.75,0,0,0.75,24,76.4191)"
font-family="Georgia" font-size="21" font-weight="400" font-style="normal" 
>
<text fill="#212121" fill-opacity="1" stroke="none" xml:space="preserve" x="0" y="0.25" font-family="Georgia" font-size="21" font-weight="400" font-style="normal" 
 >400</text>
</g>

<g fill="#212121" fill-opacity="1" stroke="#212121" stroke-opacity="1" stroke-width="1" stroke-linecap="square" stroke-linejoin="bevel" transform="matrix(0.75,0,0,0.75,24,42.0846)"
font-family="Georgia" font-size="21" font-weight="400" font-style="normal" 
>
<text fill="#212121" fill-opacity="1" stroke="none" xml:space="preserve" x="0" y="0.25" font-family="Georgia" font-size="21" font-weight="400" font-style="normal" 
 >600</text>
</g>

<g fill="none" stroke="#000000" stroke-opacity="1" stroke-width="2.66667" stroke-linecap="butt" stroke-linejoin="round" transform="matrix(0.75,0,0,0.75,-12.05,-47.6618)"
font-family="Georgia" font-size="21" font-weight="400" font-style="normal" 
>
<polyline fill="none" vector-effect="none" points="93,250 93.3681,231.239 93.7362,223.473 94.1042,217.517 94.4723,212.499 94.8404,208.081 95.2085,204.089 95.5765,200.42 95.9446,197.007 96.3127,193.803 96.6807,190.775 97.0488,187.896 97.4169,185.147 97.785,182.512 98.153,179.978 98.5211,177.534 98.8892,175.172 99.2573,172.884 99.6254,170.664 99.9934,168.505 100.362,166.404 100.73,164.357 101.098,162.358 101.466,160.406 101.834,158.497 102.202,156.628 102.57,154.797 102.938,153.003 103.306,151.242 103.674,149.513 104.042,147.815 104.41,146.147 104.778,144.505 105.146,142.891 105.515,141.301 105.883,139.736 106.251,138.193 106.619,136.673 106.987,135.174 107.355,133.696 107.723,132.237 108.091,130.798 108.459,129.376 108.827,127.973 109.195,126.586 109.563,125.216 109.931,123.862 110.3,122.523 110.668,121.199 111.036,119.89 111.404,118.595 111.772,117.313 112.14,116.045 112.508,114.79 112.876,113.547 113.244,112.316 113.612,111.098 113.98,109.89 114.348,108.695 114.716,107.51 115.085,106.336 115.453,105.172 115.821,104.018 116.189,102.875 116.557,101.741 116.925,100.617 117.293,99.5015 117.661,98.3956 118.029,97.2986 118.397,96.2103 118.765,95.1305 119.133,94.059 119.501,92.9958 119.87,91.9405 120.238,90.8931 120.606,89.8534 120.974,88.8212 121.342,87.7964 121.71,86.7789 122.078,85.7686 122.446,84.7652 122.814,83.7687 123.182,82.7789 123.55,81.7958 123.918,80.8192 124.286,79.849 124.655,78.885 125.023,77.9273 125.391,76.9756 125.759,76.03 126.127,75.0902 126.495,74.1562 126.863,73.2279 127.231,72.3053 127.599,71.3881 127.967,70.4764 128.335,69.5701 128.703,68.669 129.071,67.7731 129.439,66.8824 " />
<polyline fill="none" vector-effect="none" points="93,250 93.3681,268.761 93.7362,276.527 94.1042,282.483 94.4723,287.501 94.8404,291.919 95.2085,295.911 95.5765,299.58 95.9446,302.993 96.3127,306.197 96.6807,309.225 97.0488,312.104 97.4169,314.853 97.785,317.488 98.153,320.022 98.5211,322.466 98.8892,324.828 99.2573,327.116 99.6254,329.336 99.9934,331.495 100.362,333.596 100.73,335.643 101.098,337.642 101.466,339.594 101.834,341.503 102.202,343.372 102.57,345.203 102.938,346.997 103.306,348.758 103.674,350.487 104.042,352.185 104.41,353.853 104.778,355.495 105.146,357.109 105.515,358.699 105.883,360.264 106.251,361.807 106.619,363.327 106.987,364.826 107.355,366.304 107.723,367.763 108.091,369.202 108.459,370.624 108.827,372.027 109.195,373.414 109.563,374.784 109.931,376.138 110.3,377.477 110.668,378.801 111.036,380.11 111.404,381.405 111.772,382.687 112.14,383.955 112.508,385.21 112.876,386.453 113.244,387.684 113.612,388.902 113.98,390.11 114.348,391.305 114.716,392.49 115.085,393.664 115.453,394.828 115.821,395.982 116.189,397.125 116.557,398.259 116.925,399.383 117.293,400.498 117.661,401.604 118.029,402.701 118.397,403.79 118.765,404.87 119.133,405.941 119.501,407.004 119.87,408.06 120.238,409.107 120.606,410.147 120.974,411.179 121.342,412.204 121.71,413.221 122.078,414.231 122.446,415.235 122.814,416.231 123.182,417.221 123.55,418.204 123.918,419.181 124.286,420.151 124.655,421.115 125.023,422.073 125.391,423.024 125.759,423.97 126.127,424.91 126.495,425.844 126.863,426.772 127.231,427.695 127.599,428.612 127.967,429.524 128.335,430.43 128.703,431.331 129.071,432.227 129.439,433.118 " />
<polyline fill="none" vector-effect="none" points="107.97,250 108.694,239.391 109.418,235.031 110.142,231.71 110.866,228.93 111.59,226.499 112.314,224.317 113.038,222.326 113.762,220.486 114.486,218.771 115.21,217.161 115.935,215.642 116.659,214.202 117.383,212.832 118.107,211.524 118.831,210.273 119.555,209.072 120.279,207.918 121.003,206.807 121.727,205.736 122.451,204.702 123.175,203.702 123.899,202.734 124.623,201.797 125.347,200.888 126.071,200.006 126.795,199.15 127.519,198.318 128.244,197.51 128.968,196.723 129.692,195.957 130.416,195.212 131.14,194.486 131.864,193.779 132.588,193.09 133.312,192.419 134.036,191.764 134.76,191.125 135.484,190.502 136.208,189.894 136.932,189.301 137.656,188.722 138.38,188.157 139.104,187.605 139.828,187.067 140.553,186.541 141.277,186.028 142.001,185.527 142.725,185.039 143.449,184.561 144.173,184.096 144.897,183.641 145.621,183.197 146.345,182.764 147.069,182.342 147.793,181.93 148.517,181.528 149.241,181.136 149.965,180.753 150.689,180.381 151.413,180.018 152.137,179.664 152.862,179.319 153.586,178.984 154.31,178.657 155.034,178.339 155.758,178.03 156.482,177.73 157.206,177.437 157.93,177.154 158.654,176.878 159.378,176.611 160.102,176.352 160.826,176.101 161.55,175.857 162.274,175.622 162.998,175.394 163.722,175.174 164.447,174.962 165.171,174.757 165.895,174.56 166.619,174.37 167.343,174.188 168.067,174.013 168.791,173.845 169.515,173.684 170.239,173.531 170.963,173.385 171.687,173.246 172.411,173.114 173.135,172.989 173.859,172.87 174.583,172.759 175.307,172.655 176.031,172.558 176.756,172.468 177.48,172.384 178.204,172.308 178.928,172.238 179.652,172.175 " />
<polyline fill="none" vector-effect="none" points="107.97,250 108.694,260.609 109.418,264.969 110.142,268.29 110.866,271.07 111.59,273.501 112.314,275.683 113.038,277.674 113.762,279.514 114.486,281.229 115.21,282.839 115.935,284.358 116.659,285.798 117.383,287.168 118.107,288.476 118.831,289.727 119.555,290.928 120.279,292.082 121.003,293.193 121.727,294.264 122.451,295.298 123.175,296.298 123.899,297.266 124.623,298.203 125.347,299.112 126.071,299.994 126.795,300.85 127.519,301.682 128.244,302.49 128.968,303.277 129.692,304.043 130.416,304.788 131.14,305.513 131.864,306.221 132.588,306.91 133.312,307.581 134.036,308.236 134.76,308.875 135.484,309.498 136.208,310.106 136.932,310.699 137.656,311.278 138.38,311.843 139.104,312.395 139.828,312.933 140.553,313.459 141.277,313.972 142.001,314.473 142.725,314.961 143.449,315.439 144.173,315.904 144.897,316.359 145.621,316.803 146.345,317.236 147.069,317.658 147.793,318.07 148.517,318.472 149.241,318.864 149.965,319.247 150.689,319.619 151.413,319.982 152.137,320.336 152.862,320.681 153.586,321.016 154.31,321.343 155.034,321.661 155.758,321.97 156.482,322.27 157.206,322.563 157.93,322.846 158.654,323.122 159.378,323.389 160.102,323.648 160.826,323.899 161.55,324.143 162.274,324.378 162.998,324.606 163.722,324.826 164.447,325.038 165.171,325.243 165.895,325.44 166.619,325.63 167.343,325.812 168.067,325.987 168.791,326.155 169.515,326.316 170.239,326.469 170.963,326.615 171.687,326.754 172.411,326.886 173.135,327.011 173.859,327.129 174.583,327.241 175.307,327.345 176.031,327.442 176.756,327.532 177.48,327.616 178.204,327.692 178.928,327.762 179.652,327.825 " />
<polyline fill="none" vector-effect="none" points="173.812,250 173.908,241.321 174.004,237.727 174.1,234.969 174.196,232.645 174.292,230.598 174.388,228.747 174.484,227.046 174.58,225.462 174.676,223.976 174.772,222.569 174.868,221.232 174.964,219.955 175.06,218.73 175.156,217.552 175.252,216.415 175.348,215.316 175.444,214.25 175.54,213.216 175.636,212.21 175.732,211.231 175.828,210.276 175.924,209.344 176.02,208.433 176.116,207.541 176.212,206.668 176.308,205.813 176.404,204.974 176.5,204.151 176.596,203.342 176.692,202.547 176.788,201.766 176.884,200.997 176.98,200.24 177.076,199.495 177.172,198.761 177.268,198.037 177.365,197.324 177.461,196.62 177.557,195.925 177.653,195.24 177.749,194.563 177.845,193.894 177.941,193.234 178.037,192.581 178.133,191.936 178.229,191.298 178.325,190.667 178.421,190.043 178.517,189.425 178.613,188.814 178.709,188.209 178.805,187.61 178.901,187.017 178.997,186.429 179.093,185.847 179.189,185.271 179.285,184.699 179.381,184.133 179.477,183.572 179.573,183.015 179.669,182.464 179.765,181.916 179.861,181.374 179.957,180.836 180.053,180.302 180.149,179.772 180.245,179.246 180.341,178.724 180.437,178.207 180.533,177.693 180.629,177.183 180.725,176.676 180.821,176.173 180.917,175.674 181.013,175.178 181.109,174.686 181.205,174.196 181.301,173.71 181.397,173.228 181.493,172.748 181.589,172.272 181.685,171.798 181.781,171.328 181.877,170.86 181.973,170.395 182.069,169.933 182.165,169.474 182.261,169.018 182.357,168.564 182.453,168.113 182.549,167.664 182.645,167.218 182.741,166.774 182.837,166.333 182.933,165.895 183.029,165.458 183.125,165.025 183.221,164.593 183.317,164.164 " />
<polyline fill="none" vector-effect="none" points="173.812,250 173.908,258.679 174.004,262.273 174.1,265.031 174.196,267.355 174.292,269.402 174.388,271.253 174.484,272.954 174.58,274.538 174.676,276.025 174.772,277.431 174.868,278.768 174.964,280.045 175.06,281.27 175.156,282.448 175.252,283.585 175.348,284.684 175.444,285.75 175.54,286.784 175.636,287.79 175.732,288.769 175.828,289.724 175.924,290.656 176.02,291.567 176.116,292.459 176.212,293.332 176.308,294.187 176.404,295.026 176.5,295.849 176.596,296.658 176.692,297.453 176.788,298.234 176.884,299.003 176.98,299.76 177.076,300.505 177.172,301.239 177.268,301.963 177.365,302.676 177.461,303.38 177.557,304.075 177.653,304.76 177.749,305.437 177.845,306.106 177.941,306.766 178.037,307.419 178.133,308.064 178.229,308.702 178.325,309.333 178.421,309.957 178.517,310.575 178.613,311.186 178.709,311.791 178.805,312.39 178.901,312.983 178.997,313.571 179.093,314.153 179.189,314.729 179.285,315.301 179.381,315.867 179.477,316.428 179.573,316.985 179.669,317.536 179.765,318.084 179.861,318.626 179.957,319.164 180.053,319.698 180.149,320.228 180.245,320.754 180.341,321.276 180.437,321.793 180.533,322.307 180.629,322.817 180.725,323.324 180.821,323.827 180.917,324.326 181.013,324.822 181.109,325.314 181.205,325.804 181.301,326.29 181.397,326.772 181.493,327.252 181.589,327.728 181.685,328.202 181.781,328.672 181.877,329.14 181.973,329.605 182.069,330.067 182.165,330.526 182.261,330.982 182.357,331.436 182.453,331.887 182.549,332.336 182.645,332.782 182.741,333.226 182.837,333.667 182.933,334.105 183.029,334.542 183.125,334.975 183.221,335.407 183.317,335.836 " />
<polyline fill="none" vector-effect="none" points="185.04,250 185.457,241.358 185.874,237.792 186.291,235.066 186.708,232.776 187.125,230.766 187.542,228.955 187.96,227.295 188.377,225.756 188.794,224.316 189.211,222.959 189.628,221.673 190.045,220.449 190.463,219.279 190.88,218.157 191.297,217.079 191.714,216.041 192.131,215.038 192.548,214.068 192.966,213.128 193.383,212.216 193.8,211.33 194.217,210.469 194.634,209.63 195.051,208.812 195.468,208.015 195.886,207.236 196.303,206.475 196.72,205.732 197.137,205.004 197.554,204.292 197.971,203.595 198.389,202.911 198.806,202.241 199.223,201.584 199.64,200.939 200.057,200.306 200.474,199.685 200.892,199.074 201.309,198.474 201.726,197.885 202.143,197.305 202.56,196.735 202.977,196.174 203.395,195.622 203.812,195.079 204.229,194.544 204.646,194.017 205.063,193.499 205.48,192.988 205.897,192.485 206.315,191.989 206.732,191.5 207.149,191.018 207.566,190.544 207.983,190.075 208.4,189.614 208.818,189.158 209.235,188.709 209.652,188.266 210.069,187.829 210.486,187.398 210.903,186.972 211.321,186.553 211.738,186.138 212.155,185.729 212.572,185.325 212.989,184.927 213.406,184.533 213.823,184.145 214.241,183.761 214.658,183.382 215.075,183.008 215.492,182.639 215.909,182.274 216.326,181.914 216.744,181.558 217.161,181.206 217.578,180.859 217.995,180.516 218.412,180.178 218.829,179.843 219.247,179.512 219.664,179.186 220.081,178.863 220.498,178.544 220.915,178.229 221.332,177.918 221.749,177.611 222.167,177.307 222.584,177.007 223.001,176.711 223.418,176.418 223.835,176.129 224.252,175.843 224.67,175.56 225.087,175.281 225.504,175.005 225.921,174.733 226.338,174.464 " />
<polyline fill="none" vector-effect="none" points="185.04,250 185.457,258.642 185.874,262.208 186.291,264.934 186.708,267.224 187.125,269.234 187.542,271.045 187.96,272.705 188.377,274.244 188.794,275.684 189.211,277.041 189.628,278.327 190.045,279.551 190.463,280.721 190.88,281.843 191.297,282.921 191.714,283.959 192.131,284.962 192.548,285.932 192.966,286.872 193.383,287.784 193.8,288.67 194.217,289.531 194.634,290.37 195.051,291.188 195.468,291.985 195.886,292.764 196.303,293.525 196.72,294.268 197.137,294.996 197.554,295.708 197.971,296.405 198.389,297.089 198.806,297.759 199.223,298.416 199.64,299.061 200.057,299.694 200.474,300.315 200.892,300.926 201.309,301.526 201.726,302.115 202.143,302.695 202.56,303.265 202.977,303.826 203.395,304.378 203.812,304.921 204.229,305.456 204.646,305.983 205.063,306.501 205.48,307.012 205.897,307.515 206.315,308.011 206.732,308.5 207.149,308.982 207.566,309.456 207.983,309.925 208.4,310.386 208.818,310.842 209.235,311.291 209.652,311.734 210.069,312.171 210.486,312.602 210.903,313.027 211.321,313.447 211.738,313.862 212.155,314.271 212.572,314.675 212.989,315.073 213.406,315.467 213.823,315.855 214.241,316.239 214.658,316.618 215.075,316.992 215.492,317.361 215.909,317.726 216.326,318.086 216.744,318.442 217.161,318.794 217.578,319.141 217.995,319.484 218.412,319.822 218.829,320.157 219.247,320.488 219.664,320.814 220.081,321.137 220.498,321.456 220.915,321.771 221.332,322.082 221.749,322.389 222.167,322.693 222.584,322.993 223.001,323.289 223.418,323.582 223.835,323.871 224.252,324.157 224.67,324.44 225.087,324.719 225.504,324.995 225.921,325.267 226.338,325.536 " />
<polyline fill="none" vector-effect="none" points="209.783,250 210.066,242.125 210.348,238.871 210.63,236.378 210.913,234.281 211.195,232.437 211.478,230.773 211.76,229.246 212.043,227.828 212.325,226.498 212.607,225.243 212.89,224.051 213.172,222.915 213.455,221.828 213.737,220.783 214.019,219.778 214.302,218.807 214.584,217.868 214.867,216.958 215.149,216.075 215.431,215.217 215.714,214.381 215.996,213.567 216.279,212.773 216.561,211.997 216.843,211.24 217.126,210.498 217.408,209.772 217.691,209.061 217.973,208.365 218.255,207.681 218.538,207.01 218.82,206.352 219.103,205.705 219.385,205.069 219.668,204.443 219.95,203.828 220.232,203.223 220.515,202.627 220.797,202.04 221.08,201.462 221.362,200.892 221.644,200.331 221.927,199.777 222.209,199.231 222.492,198.692 222.774,198.161 223.056,197.636 223.339,197.118 223.621,196.606 223.904,196.101 224.186,195.602 224.468,195.109 224.751,194.622 225.033,194.141 225.316,193.665 225.598,193.194 225.88,192.729 226.163,192.269 226.445,191.814 226.728,191.364 227.01,190.918 227.293,190.477 227.575,190.041 227.857,189.609 228.14,189.182 228.422,188.759 228.705,188.34 228.987,187.925 229.269,187.515 229.552,187.108 229.834,186.705 230.117,186.306 230.399,185.91 230.681,185.519 230.964,185.131 231.246,184.746 231.529,184.365 231.811,183.987 232.093,183.613 232.376,183.242 232.658,182.874 232.941,182.509 233.223,182.148 233.506,181.789 233.788,181.434 234.07,181.081 234.353,180.732 234.635,180.385 234.918,180.042 235.2,179.701 235.482,179.363 235.765,179.027 236.047,178.695 236.33,178.364 236.612,178.037 236.894,177.712 237.177,177.39 237.459,177.07 237.742,176.753 " />
<polyline fill="none" vector-effect="none" points="209.783,250 210.066,257.875 210.348,261.129 210.63,263.622 210.913,265.719 211.195,267.563 211.478,269.227 211.76,270.754 212.043,272.172 212.325,273.502 212.607,274.757 212.89,275.949 213.172,277.085 213.455,278.172 213.737,279.217 214.019,280.222 214.302,281.193 214.584,282.132 214.867,283.042 215.149,283.925 215.431,284.783 215.714,285.619 215.996,286.433 216.279,287.227 216.561,288.003 216.843,288.76 217.126,289.502 217.408,290.228 217.691,290.939 217.973,291.635 218.255,292.319 218.538,292.99 218.82,293.648 219.103,294.295 219.385,294.931 219.668,295.557 219.95,296.172 220.232,296.777 220.515,297.373 220.797,297.96 221.08,298.538 221.362,299.108 221.644,299.669 221.927,300.223 222.209,300.769 222.492,301.308 222.774,301.839 223.056,302.364 223.339,302.882 223.621,303.393 223.904,303.899 224.186,304.398 224.468,304.891 224.751,305.378 225.033,305.859 225.316,306.335 225.598,306.806 225.88,307.271 226.163,307.731 226.445,308.186 226.728,308.636 227.01,309.082 227.293,309.523 227.575,309.959 227.857,310.391 228.14,310.818 228.422,311.241 228.705,311.66 228.987,312.075 229.269,312.485 229.552,312.892 229.834,313.295 230.117,313.694 230.399,314.09 230.681,314.481 230.964,314.869 231.246,315.254 231.529,315.635 231.811,316.013 232.093,316.387 232.376,316.758 232.658,317.126 232.941,317.491 233.223,317.852 233.506,318.211 233.788,318.566 234.07,318.919 234.353,319.268 234.635,319.615 234.918,319.958 235.2,320.299 235.482,320.637 235.765,320.973 236.047,321.306 236.33,321.636 236.612,321.963 236.894,322.288 237.177,322.61 237.459,322.93 237.742,323.247 " />
<polyline fill="none" vector-effect="none" points="249.382,250 249.293,242.585 249.203,239.514 249.113,237.159 249.024,235.173 248.934,233.425 248.844,231.844 248.755,230.39 248.665,229.038 248.575,227.768 248.486,226.567 248.396,225.425 248.306,224.335 248.217,223.288 248.127,222.282 248.037,221.311 247.947,220.373 247.858,219.463 247.768,218.58 247.678,217.722 247.589,216.885 247.499,216.07 247.409,215.274 247.32,214.496 247.23,213.735 247.14,212.99 247.051,212.26 246.961,211.544 246.871,210.841 246.782,210.151 246.692,209.473 246.602,208.806 246.512,208.15 246.423,207.504 246.333,206.868 246.243,206.242 246.154,205.624 246.064,205.016 245.974,204.415 245.885,203.823 245.795,203.238 245.705,202.66 245.616,202.09 245.526,201.527 245.436,200.97 245.347,200.419 245.257,199.875 245.167,199.337 245.077,198.805 244.988,198.278 244.898,197.757 244.808,197.241 244.719,196.73 244.629,196.224 244.539,195.723 244.45,195.227 244.36,194.735 244.27,194.248 244.181,193.765 244.091,193.287 244.001,192.812 243.912,192.342 243.822,191.876 243.732,191.413 243.642,190.954 243.553,190.499 243.463,190.048 243.373,189.6 243.284,189.155 243.194,188.714 243.104,188.276 243.015,187.841 242.925,187.41 242.835,186.981 242.746,186.556 242.656,186.133 242.566,185.714 242.477,185.297 242.387,184.883 242.297,184.472 242.207,184.063 242.118,183.657 242.028,183.254 241.938,182.853 241.849,182.455 241.759,182.059 241.669,181.665 241.58,181.274 241.49,180.886 241.4,180.499 241.311,180.115 241.221,179.733 241.131,179.353 241.042,178.976 240.952,178.6 240.862,178.227 240.772,177.855 240.683,177.486 240.593,177.118 240.503,176.753 " />
<polyline fill="none" vector-effect="none" points="249.382,250 249.293,257.415 249.203,260.486 249.113,262.841 249.024,264.827 248.934,266.576 248.844,268.156 248.755,269.609 248.665,270.962 248.575,272.232 248.486,273.433 248.396,274.575 248.306,275.665 248.217,276.712 248.127,277.718 248.037,278.689 247.947,279.627 247.858,280.537 247.768,281.42 247.678,282.278 247.589,283.115 247.499,283.93 247.409,284.726 247.32,285.504 247.23,286.265 247.14,287.01 247.051,287.74 246.961,288.456 246.871,289.159 246.782,289.849 246.692,290.527 246.602,291.194 246.512,291.85 246.423,292.496 246.333,293.132 246.243,293.758 246.154,294.376 246.064,294.984 245.974,295.585 245.885,296.177 245.795,296.762 245.705,297.34 245.616,297.91 245.526,298.473 245.436,299.03 245.347,299.581 245.257,300.125 245.167,300.663 245.077,301.195 244.988,301.722 244.898,302.243 244.808,302.759 244.719,303.27 244.629,303.776 244.539,304.277 244.45,304.773 244.36,305.265 244.27,305.752 244.181,306.235 244.091,306.713 244.001,307.188 243.912,307.658 243.822,308.124 243.732,308.587 243.642,309.046 243.553,309.501 243.463,309.952 243.373,310.4 243.284,310.845 243.194,311.286 243.104,311.724 243.015,312.159 242.925,312.59 242.835,313.019 242.746,313.444 242.656,313.867 242.566,314.286 242.477,314.703 242.387,315.117 242.297,315.528 242.207,315.937 242.118,316.343 242.028,316.746 241.938,317.147 241.849,317.545 241.759,317.941 241.669,318.335 241.58,318.726 241.49,319.114 241.4,319.501 241.311,319.885 241.221,320.267 241.131,320.647 241.042,321.024 240.952,321.4 240.862,321.773 240.772,322.145 240.683,322.514 240.593,322.882 240.503,323.247 " />
<polyline fill="none" vector-effect="none" points="254.327,250 254.2,243.211 254.073,240.401 253.946,238.246 253.819,236.43 253.692,234.83 253.565,233.386 253.438,232.057 253.311,230.822 253.184,229.662 253.057,228.566 252.93,227.524 252.803,226.528 252.677,225.574 252.55,224.657 252.423,223.772 252.296,222.916 252.169,222.088 252.042,221.283 251.915,220.502 251.788,219.741 251.661,218.999 251.534,218.275 251.407,217.568 251.28,216.876 251.153,216.199 251.026,215.536 250.899,214.885 250.773,214.247 250.646,213.621 250.519,213.005 250.392,212.401 250.265,211.806 250.138,211.22 250.011,210.644 249.884,210.077 249.757,209.517 249.63,208.966 249.503,208.423 249.376,207.887 249.249,207.358 249.122,206.836 248.995,206.32 248.869,205.811 248.742,205.308 248.615,204.811 248.488,204.32 248.361,203.834 248.234,203.354 248.107,202.879 247.98,202.409 247.853,201.944 247.726,201.484 247.599,201.028 247.472,200.577 247.345,200.131 247.218,199.688 247.092,199.25 246.965,198.816 246.838,198.386 246.711,197.96 246.584,197.537 246.457,197.118 246.33,196.703 246.203,196.291 246.076,195.883 245.949,195.478 245.822,195.076 245.695,194.678 245.568,194.283 245.441,193.89 245.314,193.501 245.188,193.115 245.061,192.731 244.934,192.351 244.807,191.973 244.68,191.598 244.553,191.226 244.426,190.856 244.299,190.489 244.172,190.124 244.045,189.762 243.918,189.402 243.791,189.044 243.664,188.689 243.537,188.337 243.411,187.986 243.284,187.638 243.157,187.292 243.03,186.948 242.903,186.606 242.776,186.266 242.649,185.929 242.522,185.593 242.395,185.259 242.268,184.928 242.141,184.598 242.014,184.27 241.887,183.944 241.76,183.62 " />
<polyline fill="none" vector-effect="none" points="254.327,250 254.2,256.789 254.073,259.599 253.946,261.754 253.819,263.57 253.692,265.17 253.565,266.614 253.438,267.943 253.311,269.178 253.184,270.338 253.057,271.434 252.93,272.476 252.803,273.472 252.677,274.426 252.55,275.343 252.423,276.228 252.296,277.084 252.169,277.912 252.042,278.717 251.915,279.498 251.788,280.259 251.661,281.001 251.534,281.725 251.407,282.432 251.28,283.124 251.153,283.801 251.026,284.464 250.899,285.115 250.773,285.753 250.646,286.379 250.519,286.995 250.392,287.599 250.265,288.194 250.138,288.78 250.011,289.356 249.884,289.923 249.757,290.483 249.63,291.034 249.503,291.577 249.376,292.113 249.249,292.642 249.122,293.164 248.995,293.68 248.869,294.189 248.742,294.692 248.615,295.189 248.488,295.68 248.361,296.166 248.234,296.646 248.107,297.121 247.98,297.591 247.853,298.056 247.726,298.516 247.599,298.972 247.472,299.423 247.345,299.869 247.218,300.312 247.092,300.75 246.965,301.184 246.838,301.614 246.711,302.04 246.584,302.463 246.457,302.882 246.33,303.297 246.203,303.709 246.076,304.117 245.949,304.522 245.822,304.924 245.695,305.322 245.568,305.717 245.441,306.11 245.314,306.499 245.188,306.885 245.061,307.269 244.934,307.649 244.807,308.027 244.68,308.402 244.553,308.774 244.426,309.144 244.299,309.511 244.172,309.876 244.045,310.238 243.918,310.598 243.791,310.956 243.664,311.311 243.537,311.663 243.411,312.014 243.284,312.362 243.157,312.708 243.03,313.052 242.903,313.394 242.776,313.734 242.649,314.071 242.522,314.407 242.395,314.741 242.268,315.072 242.141,315.402 242.014,315.73 241.887,316.056 241.76,316.38 " />
<polyline fill="none" vector-effect="none" points="261.4,250 261.65,243.314 261.9,240.551 262.15,238.435 262.4,236.655 262.65,235.091 262.9,233.679 263.15,232.384 263.4,231.181 263.65,230.054 263.9,228.99 264.15,227.98 264.4,227.017 264.65,226.095 264.9,225.211 265.15,224.359 265.4,223.537 265.65,222.742 265.9,221.972 266.15,221.224 266.4,220.498 266.65,219.791 266.9,219.102 267.15,218.431 267.4,217.775 267.65,217.134 267.9,216.508 268.15,215.894 268.4,215.294 268.65,214.705 268.9,214.128 269.15,213.561 269.4,213.005 269.65,212.459 269.9,211.923 270.15,211.395 270.4,210.876 270.65,210.366 270.9,209.863 271.15,209.368 271.4,208.881 271.65,208.401 271.9,207.928 272.15,207.462 272.4,207.002 272.65,206.548 272.9,206.101 273.15,205.66 273.4,205.224 273.65,204.794 273.9,204.369 274.15,203.95 274.4,203.535 274.65,203.126 274.9,202.721 275.15,202.322 275.4,201.927 275.65,201.536 275.9,201.15 276.15,200.768 276.4,200.39 276.65,200.017 276.9,199.647 277.15,199.282 277.4,198.92 277.651,198.562 277.901,198.207 278.151,197.857 278.401,197.509 278.651,197.166 278.901,196.825 279.151,196.488 279.401,196.154 279.651,195.824 279.901,195.497 280.151,195.172 280.401,194.851 280.651,194.533 280.901,194.217 281.151,193.905 281.401,193.595 281.651,193.289 281.901,192.984 282.151,192.683 282.401,192.384 282.651,192.088 282.901,191.795 283.151,191.504 283.401,191.215 283.651,190.929 283.901,190.646 284.151,190.365 284.401,190.086 284.651,189.809 284.901,189.535 285.151,189.263 285.401,188.994 285.651,188.726 285.901,188.461 286.151,188.198 " />
<polyline fill="none" vector-effect="none" points="261.4,250 261.65,256.686 261.9,259.449 262.15,261.565 262.4,263.345 262.65,264.909 262.9,266.321 263.15,267.616 263.4,268.819 263.65,269.946 263.9,271.01 264.15,272.02 264.4,272.983 264.65,273.905 264.9,274.789 265.15,275.641 265.4,276.463 265.65,277.258 265.9,278.028 266.15,278.776 266.4,279.502 266.65,280.209 266.9,280.898 267.15,281.569 267.4,282.225 267.65,282.866 267.9,283.492 268.15,284.106 268.4,284.706 268.65,285.295 268.9,285.872 269.15,286.439 269.4,286.995 269.65,287.541 269.9,288.077 270.15,288.605 270.4,289.124 270.65,289.634 270.9,290.137 271.15,290.632 271.4,291.119 271.65,291.599 271.9,292.072 272.15,292.538 272.4,292.998 272.65,293.452 272.9,293.899 273.15,294.34 273.4,294.776 273.65,295.206 273.9,295.631 274.15,296.05 274.4,296.465 274.65,296.874 274.9,297.279 275.15,297.678 275.4,298.073 275.65,298.464 275.9,298.85 276.15,299.232 276.4,299.61 276.65,299.983 276.9,300.353 277.15,300.718 277.4,301.08 277.651,301.438 277.901,301.793 278.151,302.143 278.401,302.491 278.651,302.834 278.901,303.175 279.151,303.512 279.401,303.846 279.651,304.176 279.901,304.503 280.151,304.828 280.401,305.149 280.651,305.467 280.901,305.783 281.151,306.095 281.401,306.405 281.651,306.711 281.901,307.016 282.151,307.317 282.401,307.616 282.651,307.912 282.901,308.205 283.151,308.496 283.401,308.785 283.651,309.071 283.901,309.354 284.151,309.635 284.401,309.914 284.651,310.191 284.901,310.465 285.151,310.737 285.401,311.006 285.651,311.274 285.901,311.539 286.151,311.802 " />
<polyline fill="none" vector-effect="none" points="289.68,250 289.631,243.77 289.582,241.189 289.533,239.21 289.484,237.541 289.435,236.071 289.386,234.742 289.338,233.52 289.289,232.382 289.24,231.314 289.191,230.304 289.142,229.343 289.093,228.425 289.044,227.545 288.995,226.698 288.946,225.881 288.898,225.091 288.849,224.325 288.8,223.581 288.751,222.858 288.702,222.154 288.653,221.467 288.604,220.797 288.555,220.141 288.507,219.5 288.458,218.872 288.409,218.257 288.36,217.653 288.311,217.06 288.262,216.478 288.213,215.906 288.164,215.344 288.115,214.79 288.066,214.246 288.018,213.709 287.969,213.18 287.92,212.659 287.871,212.145 287.822,211.638 287.773,211.138 287.724,210.644 287.675,210.157 287.627,209.675 287.578,209.199 287.529,208.728 287.48,208.263 287.431,207.803 287.382,207.349 287.333,206.899 287.284,206.453 287.235,206.012 287.187,205.576 287.138,205.144 287.089,204.716 287.04,204.292 286.991,203.873 286.942,203.457 286.893,203.044 286.844,202.636 286.795,202.231 286.747,201.829 286.698,201.431 286.649,201.036 286.6,200.644 286.551,200.255 286.502,199.87 286.453,199.487 286.404,199.107 286.355,198.731 286.307,198.357 286.258,197.985 286.209,197.617 286.16,197.251 286.111,196.887 286.062,196.527 286.013,196.168 285.964,195.812 285.915,195.458 285.867,195.107 285.818,194.758 285.769,194.411 285.72,194.067 285.671,193.724 285.622,193.384 285.573,193.046 285.524,192.709 285.475,192.375 285.427,192.043 285.378,191.712 285.329,191.384 285.28,191.057 285.231,190.733 285.182,190.41 285.133,190.089 285.084,189.769 285.035,189.452 284.987,189.136 284.938,188.821 284.889,188.509 284.84,188.198 " />
<polyline fill="none" vector-effect="none" points="289.68,250 289.631,256.23 289.582,258.811 289.533,260.79 289.484,262.459 289.435,263.929 289.386,265.258 289.338,266.48 289.289,267.618 289.24,268.686 289.191,269.696 289.142,270.657 289.093,271.575 289.044,272.455 288.995,273.302 288.946,274.119 288.898,274.909 288.849,275.675 288.8,276.419 288.751,277.142 288.702,277.846 288.653,278.533 288.604,279.203 288.555,279.859 288.507,280.5 288.458,281.128 288.409,281.743 288.36,282.347 288.311,282.94 288.262,283.522 288.213,284.094 288.164,284.656 288.115,285.21 288.066,285.754 288.018,286.291 287.969,286.82 287.92,287.341 287.871,287.855 287.822,288.362 287.773,288.862 287.724,289.356 287.675,289.843 287.627,290.325 287.578,290.801 287.529,291.272 287.48,291.737 287.431,292.197 287.382,292.651 287.333,293.101 287.284,293.547 287.235,293.988 287.187,294.424 287.138,294.856 287.089,295.284 287.04,295.708 286.991,296.127 286.942,296.543 286.893,296.956 286.844,297.364 286.795,297.769 286.747,298.171 286.698,298.569 286.649,298.964 286.6,299.356 286.551,299.745 286.502,300.13 286.453,300.513 286.404,300.892 286.355,301.269 286.307,301.643 286.258,302.015 286.209,302.383 286.16,302.749 286.111,303.113 286.062,303.473 286.013,303.832 285.964,304.188 285.915,304.542 285.867,304.893 285.818,305.242 285.769,305.589 285.72,305.933 285.671,306.276 285.622,306.616 285.573,306.954 285.524,307.291 285.475,307.625 285.427,307.957 285.378,308.288 285.329,308.616 285.28,308.943 285.231,309.267 285.182,309.59 285.133,309.911 285.084,310.231 285.035,310.548 284.987,310.864 284.938,311.179 284.889,311.491 284.84,311.802 " />
<polyline fill="none" vector-effect="none" points="293.216,250 293.216,244.249 293.217,241.867 293.217,240.039 293.217,238.497 293.217,237.14 293.217,235.912 293.217,234.784 293.217,233.733 293.218,232.746 293.218,231.813 293.218,230.925 293.218,230.077 293.218,229.264 293.218,228.481 293.218,227.725 293.219,226.995 293.219,226.287 293.219,225.599 293.219,224.931 293.219,224.28 293.219,223.644 293.219,223.024 293.22,222.418 293.22,221.825 293.22,221.244 293.22,220.674 293.22,220.116 293.22,219.567 293.22,219.029 293.221,218.499 293.221,217.978 293.221,217.466 293.221,216.962 293.221,216.465 293.221,215.975 293.221,215.492 293.222,215.016 293.222,214.547 293.222,214.083 293.222,213.626 293.222,213.174 293.222,212.728 293.222,212.286 293.223,211.85 293.223,211.419 293.223,210.993 293.223,210.571 293.223,210.154 293.223,209.741 293.223,209.332 293.224,208.928 293.224,208.527 293.224,208.13 293.224,207.737 293.224,207.348 293.224,206.962 293.224,206.579 293.225,206.2 293.225,205.824 293.225,205.451 293.225,205.081 293.225,204.715 293.225,204.351 293.225,203.99 293.226,203.632 293.226,203.277 293.226,202.924 293.226,202.574 293.226,202.226 293.226,201.882 293.227,201.539 293.227,201.199 293.227,200.861 293.227,200.526 293.227,200.193 293.227,199.862 293.227,199.533 293.228,199.206 293.228,198.882 293.228,198.559 293.228,198.239 293.228,197.92 293.228,197.604 293.228,197.289 293.229,196.976 293.229,196.665 293.229,196.356 293.229,196.048 293.229,195.743 293.229,195.439 293.229,195.137 293.23,194.836 293.23,194.537 293.23,194.24 293.23,193.944 293.23,193.649 293.23,193.357 293.23,193.065 293.231,192.776 " />
<polyline fill="none" vector-effect="none" points="293.216,250 293.216,255.751 293.217,258.134 293.217,259.961 293.217,261.503 293.217,262.86 293.217,264.088 293.217,265.216 293.217,266.267 293.218,267.254 293.218,268.187 293.218,269.075 293.218,269.923 293.218,270.736 293.218,271.519 293.218,272.275 293.219,273.005 293.219,273.713 293.219,274.401 293.219,275.069 293.219,275.72 293.219,276.356 293.219,276.976 293.22,277.582 293.22,278.175 293.22,278.756 293.22,279.326 293.22,279.884 293.22,280.433 293.22,280.971 293.221,281.501 293.221,282.022 293.221,282.534 293.221,283.038 293.221,283.535 293.221,284.025 293.221,284.508 293.222,284.984 293.222,285.453 293.222,285.917 293.222,286.374 293.222,286.826 293.222,287.272 293.222,287.714 293.223,288.15 293.223,288.581 293.223,289.007 293.223,289.429 293.223,289.846 293.223,290.259 293.223,290.668 293.224,291.072 293.224,291.473 293.224,291.87 293.224,292.263 293.224,292.652 293.224,293.038 293.224,293.421 293.225,293.8 293.225,294.176 293.225,294.549 293.225,294.919 293.225,295.285 293.225,295.649 293.225,296.01 293.226,296.368 293.226,296.723 293.226,297.076 293.226,297.426 293.226,297.773 293.226,298.118 293.227,298.461 293.227,298.801 293.227,299.139 293.227,299.474 293.227,299.807 293.227,300.138 293.227,300.467 293.228,300.794 293.228,301.118 293.228,301.441 293.228,301.761 293.228,302.08 293.228,302.396 293.228,302.711 293.229,303.024 293.229,303.335 293.229,303.644 293.229,303.952 293.229,304.257 293.229,304.561 293.229,304.863 293.23,305.164 293.23,305.463 293.23,305.76 293.23,306.056 293.23,306.351 293.23,306.643 293.23,306.935 293.231,307.224 " />
<polyline fill="none" vector-effect="none" points="303.826,250 303.826,244.249 303.826,241.867 303.826,240.039 303.826,238.497 303.826,237.14 303.826,235.912 303.827,234.784 303.827,233.733 303.827,232.746 303.827,231.813 303.827,230.925 303.827,230.077 303.827,229.264 303.828,228.481 303.828,227.725 303.828,226.995 303.828,226.287 303.828,225.599 303.828,224.931 303.829,224.28 303.829,223.644 303.829,223.024 303.829,222.418 303.829,221.825 303.829,221.244 303.829,220.674 303.83,220.116 303.83,219.567 303.83,219.029 303.83,218.499 303.83,217.978 303.83,217.466 303.83,216.962 303.831,216.465 303.831,215.975 303.831,215.492 303.831,215.016 303.831,214.547 303.831,214.083 303.831,213.626 303.832,213.174 303.832,212.728 303.832,212.286 303.832,211.85 303.832,211.419 303.832,210.993 303.832,210.571 303.833,210.154 303.833,209.741 303.833,209.332 303.833,208.928 303.833,208.527 303.833,208.13 303.833,207.737 303.834,207.348 303.834,206.962 303.834,206.579 303.834,206.2 303.834,205.824 303.834,205.451 303.834,205.081 303.835,204.715 303.835,204.351 303.835,203.99 303.835,203.632 303.835,203.277 303.835,202.924 303.835,202.574 303.836,202.226 303.836,201.882 303.836,201.539 303.836,201.199 303.836,200.861 303.836,200.526 303.836,200.193 303.837,199.862 303.837,199.533 303.837,199.206 303.837,198.882 303.837,198.559 303.837,198.239 303.837,197.92 303.838,197.604 303.838,197.289 303.838,196.976 303.838,196.665 303.838,196.356 303.838,196.048 303.838,195.743 303.839,195.439 303.839,195.137 303.839,194.836 303.839,194.537 303.839,194.24 303.839,193.944 303.84,193.649 303.84,193.357 303.84,193.065 303.84,192.776 " />
<polyline fill="none" vector-effect="none" points="303.826,250 303.826,255.751 303.826,258.134 303.826,259.961 303.826,261.503 303.826,262.86 303.826,264.088 303.827,265.216 303.827,266.267 303.827,267.254 303.827,268.187 303.827,269.075 303.827,269.923 303.827,270.736 303.828,271.519 303.828,272.275 303.828,273.005 303.828,273.713 303.828,274.401 303.828,275.069 303.829,275.72 303.829,276.356 303.829,276.976 303.829,277.582 303.829,278.175 303.829,278.756 303.829,279.326 303.83,279.884 303.83,280.433 303.83,280.971 303.83,281.501 303.83,282.022 303.83,282.534 303.83,283.038 303.831,283.535 303.831,284.025 303.831,284.508 303.831,284.984 303.831,285.453 303.831,285.917 303.831,286.374 303.832,286.826 303.832,287.272 303.832,287.714 303.832,288.15 303.832,288.581 303.832,289.007 303.832,289.429 303.833,289.846 303.833,290.259 303.833,290.668 303.833,291.072 303.833,291.473 303.833,291.87 303.833,292.263 303.834,292.652 303.834,293.038 303.834,293.421 303.834,293.8 303.834,294.176 303.834,294.549 303.834,294.919 303.835,295.285 303.835,295.649 303.835,296.01 303.835,296.368 303.835,296.723 303.835,297.076 303.835,297.426 303.836,297.773 303.836,298.118 303.836,298.461 303.836,298.801 303.836,299.139 303.836,299.474 303.836,299.807 303.837,300.138 303.837,300.467 303.837,300.794 303.837,301.118 303.837,301.441 303.837,301.761 303.837,302.08 303.838,302.396 303.838,302.711 303.838,303.024 303.838,303.335 303.838,303.644 303.838,303.952 303.838,304.257 303.839,304.561 303.839,304.863 303.839,305.164 303.839,305.463 303.839,305.76 303.839,306.056 303.84,306.351 303.84,306.643 303.84,306.935 303.84,307.224 " />
</g>

<g fill="#ff3300" fill-opacity="1" stroke="#ff3300" stroke-opacity="1" stroke-width="2.66667" stroke-linecap="butt" stroke-linejoin="round" transform="matrix(0.75,0,0,0.75,-12.05,-47.6618)"
font-family="Georgia" font-size="21" font-weight="400" font-style="normal" 
>
<polyline fill="none" vector-effect="none" points="313.588,250.916 313.588,251.831 " />
<polyline fill="none" vector-effect="none" points="313.588,248.169 313.588,249.084 " />
</g>

<g fill="none" stroke="#000000" stroke-opacity="1" stroke-width="2.66667" stroke-linecap="butt" stroke-linejoin="round" transform="matrix(0.75,0,0,0.75,-12.05,-47.6618)"
font-family="Georgia" font-size="21" font-weight="400" font-style="normal" 
>
<polyline fill="none" vector-effect="none" points="325.033,250 325.031,244.881 325.029,242.761 325.026,241.134 325.024,239.763 325.022,238.554 325.02,237.462 325.018,236.457 325.016,235.522 325.013,234.644 325.011,233.813 325.009,233.023 325.007,232.268 325.005,231.544 325.003,230.848 325,230.176 324.998,229.525 324.996,228.895 324.994,228.283 324.992,227.688 324.99,227.109 324.987,226.543 324.985,225.991 324.983,225.452 324.981,224.924 324.979,224.407 324.977,223.9 324.974,223.403 324.972,222.915 324.97,222.435 324.968,221.964 324.966,221.501 324.964,221.045 324.961,220.596 324.959,220.153 324.957,219.718 324.955,219.288 324.953,218.865 324.951,218.447 324.948,218.034 324.946,217.627 324.944,217.225 324.942,216.827 324.94,216.435 324.938,216.047 324.935,215.663 324.933,215.284 324.931,214.908 324.929,214.537 324.927,214.17 324.925,213.806 324.922,213.446 324.92,213.089 324.918,212.736 324.916,212.386 324.914,212.039 324.912,211.696 324.909,211.355 324.907,211.018 324.905,210.683 324.903,210.351 324.901,210.022 324.899,209.696 324.896,209.372 324.894,209.051 324.892,208.732 324.89,208.416 324.888,208.102 324.886,207.791 324.884,207.481 324.881,207.174 324.879,206.87 324.877,206.567 324.875,206.266 324.873,205.968 324.871,205.671 324.868,205.377 324.866,205.084 324.864,204.794 324.862,204.505 324.86,204.218 324.858,203.932 324.855,203.649 324.853,203.367 324.851,203.087 324.849,202.809 324.847,202.532 324.845,202.257 324.842,201.983 324.84,201.711 324.838,201.441 324.836,201.171 324.834,200.904 324.832,200.638 324.829,200.373 324.827,200.11 324.825,199.848 324.823,199.587 324.821,199.328 324.819,199.07 " />
<polyline fill="none" vector-effect="none" points="325.033,250 325.031,255.119 325.029,257.239 325.026,258.866 325.024,260.237 325.022,261.446 325.02,262.538 325.018,263.543 325.016,264.478 325.013,265.356 325.011,266.187 325.009,266.977 325.007,267.732 325.005,268.456 325.003,269.152 325,269.824 324.998,270.475 324.996,271.105 324.994,271.717 324.992,272.312 324.99,272.891 324.987,273.457 324.985,274.009 324.983,274.548 324.981,275.076 324.979,275.593 324.977,276.1 324.974,276.597 324.972,277.085 324.97,277.565 324.968,278.036 324.966,278.499 324.964,278.955 324.961,279.404 324.959,279.847 324.957,280.282 324.955,280.712 324.953,281.135 324.951,281.553 324.948,281.966 324.946,282.373 324.944,282.775 324.942,283.173 324.94,283.565 324.938,283.953 324.935,284.337 324.933,284.716 324.931,285.092 324.929,285.463 324.927,285.83 324.925,286.194 324.922,286.554 324.92,286.911 324.918,287.264 324.916,287.614 324.914,287.961 324.912,288.304 324.909,288.645 324.907,288.982 324.905,289.317 324.903,289.649 324.901,289.978 324.899,290.304 324.896,290.628 324.894,290.949 324.892,291.268 324.89,291.584 324.888,291.898 324.886,292.209 324.884,292.519 324.881,292.826 324.879,293.13 324.877,293.433 324.875,293.734 324.873,294.032 324.871,294.329 324.868,294.623 324.866,294.916 324.864,295.206 324.862,295.495 324.86,295.782 324.858,296.068 324.855,296.351 324.853,296.633 324.851,296.913 324.849,297.191 324.847,297.468 324.845,297.743 324.842,298.017 324.84,298.289 324.838,298.56 324.836,298.829 324.834,299.096 324.832,299.362 324.829,299.627 324.827,299.89 324.825,300.152 324.823,300.413 324.821,300.672 324.819,300.93 " />
<polyline fill="none" vector-effect="none" points="349.079,250 348.945,244.098 348.811,241.656 348.677,239.783 348.543,238.206 348.41,236.817 348.276,235.562 348.142,234.409 348.008,233.337 347.875,232.331 347.741,231.38 347.607,230.476 347.473,229.614 347.339,228.787 347.206,227.991 347.072,227.225 346.938,226.484 346.804,225.767 346.67,225.07 346.537,224.394 346.403,223.736 346.269,223.094 346.135,222.468 346.002,221.857 345.868,221.259 345.734,220.674 345.6,220.101 345.466,219.539 345.333,218.988 345.199,218.447 345.065,217.916 344.931,217.395 344.797,216.881 344.664,216.377 344.53,215.88 344.396,215.391 344.262,214.909 344.129,214.434 343.995,213.967 343.861,213.505 343.727,213.05 343.593,212.601 343.46,212.157 343.326,211.719 343.192,211.287 343.058,210.86 342.924,210.438 342.791,210.021 342.657,209.608 342.523,209.2 342.389,208.797 342.256,208.398 342.122,208.003 341.988,207.612 341.854,207.226 341.72,206.843 341.587,206.464 341.453,206.088 341.319,205.717 341.185,205.348 341.051,204.983 340.918,204.622 340.784,204.263 340.65,203.908 340.516,203.556 340.383,203.207 340.249,202.861 340.115,202.518 339.981,202.178 339.847,201.84 339.714,201.505 339.58,201.173 339.446,200.844 339.312,200.517 339.178,200.192 339.045,199.87 338.911,199.551 338.777,199.233 338.643,198.919 338.51,198.606 338.376,198.295 338.242,197.987 338.108,197.681 337.974,197.377 337.841,197.075 337.707,196.776 337.573,196.478 337.439,196.182 337.306,195.888 337.172,195.596 337.038,195.306 336.904,195.018 336.77,194.732 336.637,194.447 336.503,194.164 336.369,193.883 336.235,193.604 336.101,193.326 335.968,193.05 335.834,192.776 " />
<polyline fill="none" vector-effect="none" points="349.079,250 348.945,255.902 348.811,258.344 348.677,260.217 348.543,261.794 348.41,263.183 348.276,264.438 348.142,265.591 348.008,266.663 347.875,267.669 347.741,268.62 347.607,269.524 347.473,270.387 347.339,271.213 347.206,272.009 347.072,272.775 346.938,273.516 346.804,274.233 346.67,274.93 346.537,275.606 346.403,276.264 346.269,276.906 346.135,277.532 346.002,278.143 345.868,278.741 345.734,279.326 345.6,279.899 345.466,280.461 345.333,281.012 345.199,281.553 345.065,282.084 344.931,282.605 344.797,283.118 344.664,283.623 344.53,284.12 344.396,284.609 344.262,285.091 344.129,285.565 343.995,286.033 343.861,286.495 343.727,286.95 343.593,287.399 343.46,287.843 343.326,288.281 343.192,288.713 343.058,289.14 342.924,289.562 342.791,289.979 342.657,290.392 342.523,290.8 342.389,291.203 342.256,291.602 342.122,291.997 341.988,292.388 341.854,292.774 341.72,293.157 341.587,293.536 341.453,293.912 341.319,294.283 341.185,294.652 341.051,295.017 340.918,295.378 340.784,295.737 340.65,296.092 340.516,296.444 340.383,296.793 340.249,297.139 340.115,297.482 339.981,297.822 339.847,298.16 339.714,298.495 339.58,298.827 339.446,299.156 339.312,299.483 339.178,299.808 339.045,300.13 338.911,300.449 338.777,300.767 338.643,301.081 338.51,301.394 338.376,301.705 338.242,302.013 338.108,302.319 337.974,302.623 337.841,302.925 337.707,303.224 337.573,303.522 337.439,303.818 337.306,304.112 337.172,304.404 337.038,304.694 336.904,304.982 336.77,305.268 336.637,305.553 336.503,305.836 336.369,306.117 336.235,306.396 336.101,306.674 335.968,306.95 335.834,307.224 " />
<polyline fill="none" vector-effect="none" points="349.788,250 349.812,244.014 349.835,241.535 349.859,239.632 349.883,238.028 349.907,236.616 349.93,235.338 349.954,234.164 349.978,233.07 350.001,232.043 350.025,231.072 350.049,230.149 350.072,229.266 350.096,228.42 350.12,227.605 350.143,226.819 350.167,226.059 350.191,225.323 350.214,224.607 350.238,223.912 350.262,223.234 350.285,222.573 350.309,221.928 350.333,221.298 350.356,220.68 350.38,220.076 350.404,219.484 350.427,218.903 350.451,218.332 350.475,217.772 350.498,217.221 350.522,216.68 350.546,216.147 350.569,215.622 350.593,215.106 350.617,214.596 350.64,214.094 350.664,213.599 350.688,213.111 350.711,212.629 350.735,212.153 350.759,211.684 350.782,211.219 350.806,210.761 350.83,210.307 350.853,209.859 350.877,209.416 350.901,208.978 350.924,208.544 350.948,208.114 350.972,207.69 350.996,207.269 351.019,206.852 351.043,206.44 351.067,206.031 351.09,205.626 351.114,205.225 351.138,204.827 351.161,204.433 351.185,204.042 351.209,203.655 351.232,203.271 351.256,202.89 351.28,202.511 351.303,202.136 351.327,201.764 351.351,201.395 351.374,201.029 351.398,200.665 351.422,200.304 351.445,199.945 351.469,199.59 351.493,199.236 351.516,198.885 351.54,198.537 351.564,198.191 351.587,197.847 351.611,197.505 351.635,197.166 351.658,196.829 351.682,196.494 351.706,196.161 351.729,195.83 351.753,195.501 351.777,195.174 351.8,194.849 351.824,194.526 351.848,194.205 351.871,193.886 351.895,193.568 351.919,193.252 351.943,192.938 351.966,192.626 351.99,192.316 352.014,192.007 352.037,191.7 352.061,191.394 352.085,191.09 352.108,190.788 352.132,190.487 " />
<polyline fill="none" vector-effect="none" points="349.788,250 349.812,255.986 349.835,258.465 349.859,260.368 349.883,261.971 349.907,263.384 349.93,264.662 349.954,265.836 349.978,266.93 350.001,267.957 350.025,268.928 350.049,269.851 350.072,270.734 350.096,271.58 350.12,272.395 350.143,273.181 350.167,273.941 350.191,274.677 350.214,275.393 350.238,276.088 350.262,276.766 350.285,277.427 350.309,278.072 350.333,278.702 350.356,279.319 350.38,279.924 350.404,280.516 350.427,281.097 350.451,281.668 350.475,282.228 350.498,282.779 350.522,283.32 350.546,283.853 350.569,284.378 350.593,284.894 350.617,285.404 350.64,285.906 350.664,286.401 350.688,286.889 350.711,287.371 350.735,287.847 350.759,288.316 350.782,288.781 350.806,289.239 350.83,289.693 350.853,290.141 350.877,290.584 350.901,291.022 350.924,291.456 350.948,291.886 350.972,292.31 350.996,292.731 351.019,293.148 351.043,293.56 351.067,293.969 351.09,294.374 351.114,294.775 351.138,295.173 351.161,295.567 351.185,295.958 351.209,296.345 351.232,296.729 351.256,297.11 351.28,297.489 351.303,297.864 351.327,298.236 351.351,298.605 351.374,298.971 351.398,299.335 351.422,299.696 351.445,300.055 351.469,300.41 351.493,300.764 351.516,301.115 351.54,301.463 351.564,301.809 351.587,302.153 351.611,302.495 351.635,302.834 351.658,303.171 351.682,303.506 351.706,303.839 351.729,304.17 351.753,304.499 351.777,304.826 351.8,305.151 351.824,305.474 351.848,305.795 351.871,306.114 351.895,306.432 351.919,306.748 351.943,307.062 351.966,307.374 351.99,307.684 352.014,307.993 352.037,308.3 352.061,308.606 352.085,308.91 352.108,309.212 352.132,309.513 " />
<polyline fill="none" vector-effect="none" points="385.141,250 384.829,243.265 384.516,240.485 384.203,238.36 383.89,236.573 383.577,235.005 383.265,233.591 382.952,232.296 382.639,231.094 382.326,229.97 382.014,228.909 381.701,227.904 381.388,226.947 381.075,226.032 380.763,225.155 380.45,224.312 380.137,223.499 379.824,222.713 379.512,221.954 379.199,221.217 378.886,220.503 378.573,219.808 378.26,219.133 377.948,218.475 377.635,217.833 377.322,217.207 377.009,216.596 376.697,215.998 376.384,215.414 376.071,214.842 375.758,214.282 375.446,213.733 375.133,213.196 374.82,212.668 374.507,212.151 374.194,211.643 373.882,211.144 373.569,210.654 373.256,210.172 372.943,209.699 372.631,209.234 372.318,208.776 372.005,208.325 371.692,207.882 371.38,207.446 371.067,207.016 370.754,206.593 370.441,206.176 370.129,205.765 369.816,205.36 369.503,204.962 369.19,204.568 368.877,204.18 368.565,203.798 368.252,203.421 367.939,203.049 367.626,202.682 367.314,202.32 367.001,201.962 366.688,201.609 366.375,201.261 366.063,200.918 365.75,200.578 365.437,200.243 365.124,199.912 364.811,199.585 364.499,199.263 364.186,198.944 363.873,198.629 363.56,198.318 363.248,198.011 362.935,197.707 362.622,197.407 362.309,197.11 361.997,196.817 361.684,196.528 361.371,196.242 361.058,195.959 360.746,195.679 360.433,195.403 360.12,195.13 359.807,194.859 359.494,194.592 359.182,194.328 358.869,194.068 358.556,193.81 358.243,193.554 357.931,193.302 357.618,193.053 357.305,192.806 356.992,192.562 356.68,192.321 356.367,192.083 356.054,191.847 355.741,191.614 355.428,191.383 355.116,191.156 354.803,190.93 354.49,190.707 354.177,190.487 " />
<polyline fill="none" vector-effect="none" points="385.141,250 384.829,256.735 384.516,259.515 384.203,261.641 383.89,263.427 383.577,264.995 383.265,266.409 382.952,267.704 382.639,268.906 382.326,270.03 382.014,271.091 381.701,272.096 381.388,273.053 381.075,273.968 380.763,274.845 380.45,275.688 380.137,276.501 379.824,277.287 379.512,278.046 379.199,278.783 378.886,279.497 378.573,280.192 378.26,280.867 377.948,281.525 377.635,282.167 377.322,282.793 377.009,283.404 376.697,284.002 376.384,284.586 376.071,285.158 375.758,285.718 375.446,286.267 375.133,286.804 374.82,287.332 374.507,287.849 374.194,288.357 373.882,288.856 373.569,289.346 373.256,289.828 372.943,290.301 372.631,290.766 372.318,291.224 372.005,291.675 371.692,292.118 371.38,292.554 371.067,292.984 370.754,293.407 370.441,293.824 370.129,294.235 369.816,294.64 369.503,295.038 369.19,295.432 368.877,295.82 368.565,296.202 368.252,296.579 367.939,296.951 367.626,297.318 367.314,297.68 367.001,298.038 366.688,298.391 366.375,298.739 366.063,299.082 365.75,299.422 365.437,299.757 365.124,300.088 364.811,300.415 364.499,300.737 364.186,301.056 363.873,301.371 363.56,301.682 363.248,301.989 362.935,302.293 362.622,302.593 362.309,302.89 361.997,303.183 361.684,303.472 361.371,303.758 361.058,304.041 360.746,304.321 360.433,304.597 360.12,304.87 359.807,305.141 359.494,305.408 359.182,305.672 358.869,305.932 358.556,306.19 358.243,306.446 357.931,306.698 357.618,306.947 357.305,307.194 356.992,307.438 356.68,307.679 356.367,307.917 356.054,308.153 355.741,308.386 355.428,308.616 355.116,308.844 354.803,309.07 354.49,309.293 354.177,309.513 " />
<polyline fill="none" vector-effect="none" points="392.214,250 392.064,243.39 391.915,240.655 391.765,238.557 391.615,236.79 391.465,235.235 391.315,233.83 391.166,232.539 391.016,231.338 390.866,230.211 390.716,229.146 390.566,228.134 390.417,227.167 390.267,226.241 390.117,225.351 389.967,224.492 389.818,223.662 389.668,222.859 389.518,222.079 389.368,221.322 389.218,220.584 389.069,219.866 388.919,219.165 388.769,218.48 388.619,217.81 388.469,217.155 388.32,216.513 388.17,215.884 388.02,215.267 387.87,214.662 387.72,214.067 387.571,213.482 387.421,212.908 387.271,212.342 387.121,211.786 386.971,211.238 386.822,210.699 386.672,210.167 386.522,209.643 386.372,209.126 386.222,208.616 386.073,208.113 385.923,207.616 385.773,207.126 385.623,206.642 385.473,206.163 385.324,205.691 385.174,205.223 385.024,204.761 384.874,204.305 384.724,203.853 384.575,203.406 384.425,202.964 384.275,202.526 384.125,202.093 383.976,201.664 383.826,201.24 383.676,200.819 383.526,200.403 383.376,199.99 383.227,199.582 383.077,199.177 382.927,198.775 382.777,198.378 382.627,197.983 382.478,197.592 382.328,197.205 382.178,196.821 382.028,196.439 381.878,196.061 381.729,195.686 381.579,195.314 381.429,194.945 381.279,194.579 381.129,194.216 380.98,193.855 380.83,193.497 380.68,193.142 380.53,192.789 380.38,192.439 380.231,192.091 380.081,191.746 379.931,191.403 379.781,191.063 379.632,190.725 379.482,190.389 379.332,190.055 379.182,189.724 379.032,189.395 378.883,189.068 378.733,188.743 378.583,188.42 378.433,188.099 378.283,187.781 378.134,187.464 377.984,187.149 377.834,186.836 377.684,186.525 377.534,186.216 377.385,185.909 " />
<polyline fill="none" vector-effect="none" points="392.214,250 392.064,256.61 391.915,259.345 391.765,261.443 391.615,263.21 391.465,264.765 391.315,266.17 391.166,267.461 391.016,268.662 390.866,269.789 390.716,270.854 390.566,271.866 390.417,272.833 390.267,273.759 390.117,274.649 389.967,275.508 389.818,276.338 389.668,277.141 389.518,277.921 389.368,278.678 389.218,279.416 389.069,280.134 388.919,280.836 388.769,281.52 388.619,282.19 388.469,282.845 388.32,283.487 388.17,284.116 388.02,284.733 387.87,285.339 387.72,285.933 387.571,286.518 387.421,287.092 387.271,287.658 387.121,288.214 386.971,288.762 386.822,289.301 386.672,289.833 386.522,290.357 386.372,290.874 386.222,291.384 386.073,291.887 385.923,292.384 385.773,292.874 385.623,293.358 385.473,293.837 385.324,294.309 385.174,294.777 385.024,295.239 384.874,295.695 384.724,296.147 384.575,296.594 384.425,297.036 384.275,297.474 384.125,297.907 383.976,298.336 383.826,298.76 383.676,299.181 383.526,299.597 383.376,300.01 383.227,300.418 383.077,300.823 382.927,301.225 382.777,301.622 382.627,302.017 382.478,302.408 382.328,302.795 382.178,303.179 382.028,303.561 381.878,303.939 381.729,304.314 381.579,304.686 381.429,305.055 381.279,305.421 381.129,305.784 380.98,306.145 380.83,306.503 380.68,306.858 380.53,307.211 380.38,307.561 380.231,307.909 380.081,308.254 379.931,308.597 379.781,308.937 379.632,309.275 379.482,309.611 379.332,309.945 379.182,310.276 379.032,310.605 378.883,310.932 378.733,311.257 378.583,311.58 378.433,311.901 378.283,312.219 378.134,312.536 377.984,312.851 377.834,313.164 377.684,313.475 377.534,313.784 377.385,314.091 " />
</g>

<g fill="none" stroke="#0000ff" stroke-opacity="1" stroke-width="1.6" stroke-linecap="butt" stroke-linejoin="miter" stroke-miterlimit="2" transform="matrix(0.75,0,0,0.75,-12.05,-47.6618)"
font-family="Georgia" font-size="21" font-weight="400" font-style="normal" 
>
<path vector-effect="none" fill-rule="evenodd" d="M655.667,250 C655.667,246.318 652.682,243.333 649,243.333 C645.318,243.333 642.333,246.318 642.333,250 C642.333,253.682 645.318,256.667 649,256.667 C652.682,256.667 655.667,253.682 655.667,250 "/>
</g>

<g fill="none" stroke="#00ff00" stroke-opacity="1" stroke-width="1.6" stroke-linecap="butt" stroke-linejoin="miter" stroke-miterlimit="2" transform="matrix(0.75,0,0,0.75,-12.05,-47.6618)"
font-family="Georgia" font-size="21" font-weight="400" font-style="normal" 
>
<path vector-effect="none" fill-rule="evenodd" d="M541.035,250 C541.035,246.318 538.05,243.333 534.368,243.333 C530.686,243.333 527.701,246.318 527.701,250 C527.701,253.682 530.686,256.667 534.368,256.667 C538.05,256.667 541.035,253.682 541.035,250 "/>
</g>

<g fill="none" stroke="#ff0000" stroke-opacity="1" stroke-width="1.6" stroke-linecap="butt" stroke-linejoin="miter" stroke-miterlimit="2" transform="matrix(0.75,0,0,0.75,-12.05,-47.6618)"
font-family="Georgia" font-size="21" font-weight="400" font-style="normal" 
>
<path vector-effect="none" fill-rule="evenodd" d="M537.701,250 C537.701,248.159 536.209,246.667 534.368,246.667 C532.527,246.667 531.035,248.159 531.035,250 C531.035,251.841 532.527,253.333 534.368,253.333 C536.209,253.333 537.701,251.841 537.701,250 "/>
</g>

<g fill="#ffffff" fill-opacity="1" stroke="none" transform="matrix(7.5e-05,0,0,7.5e-05,-12.05,-47.6618)"
font-family="Georgia" font-size="21" font-weight="400" font-style="normal" 
>
<path vector-effect="none" fill-rule="evenodd" d="M4.27e+06,780000 L4.27e+06,1.49e+06 L6.38e+06,1.49e+06 L6.38e+06,780000 L4.27e+06,780000"/>
</g>

<g fill="none" stroke="#0000ff" stroke-opacity="1" stroke-width="1.6" stroke-linecap="butt" stroke-linejoin="miter" stroke-miterlimit="2" transform="matrix(0.75,0,0,0.75,-12.05,-47.6618)"
font-family="Georgia" font-size="21" font-weight="400" font-style="normal" 
>
<path vector-effect="none" fill-rule="evenodd" d="M445.888,91 C445.888,87.3181 442.903,84.3333 439.221,84.3333 C435.539,84.3333 432.554,87.3181 432.554,91 C432.554,94.6819 435.539,97.6667 439.221,97.6667 C442.903,97.6667 445.888,94.6819 445.888,91 "/>
</g>

<g fill="none" stroke="#00ff00" stroke-opacity="1" stroke-width="1.6" stroke-linecap="butt" stroke-linejoin="miter" stroke-miterlimit="2" transform="matrix(0.75,0,0,0.75,-12.05,-47.6618)"
font-family="Georgia" font-size="21" font-weight="400" font-style="normal" 
>
<path vector-effect="none" fill-rule="evenodd" d="M445.888,113.5 C445.888,109.818 442.903,106.833 439.221,106.833 C435.539,106.833 432.554,109.818 432.554,113.5 C432.554,117.182 435.539,120.167 439.221,120.167 C442.903,120.167 445.888,117.182 445.888,113.5 "/>
</g>

<g fill="none" stroke="#ff0000" stroke-opacity="1" stroke-width="1.6" stroke-linecap="butt" stroke-linejoin="miter" stroke-miterlimit="2" transform="matrix(0.75,0,0,0.75,-12.05,-47.6618)"
font-family="Georgia" font-size="21" font-weight="400" font-style="normal" 
>
<path vector-effect="none" fill-rule="evenodd" d="M442.554,136 C442.554,134.159 441.062,132.667 439.221,132.667 C437.38,132.667 435.888,134.159 435.888,136 C435.888,137.841 437.38,139.333 439.221,139.333 C441.062,139.333 442.554,137.841 442.554,136 "/>
</g>

<g fill="#212121" fill-opacity="1" stroke="#212121" stroke-opacity="1" stroke-width="1" stroke-linecap="square" stroke-linejoin="bevel" transform="matrix(0.75,0,0,0.75,325.783,25.4632)"
font-family="Georgia" font-size="19" font-weight="400" font-style="normal" 
>
<text fill="#212121" fill-opacity="1" stroke="none" xml:space="preserve" x="0" y="0.421875" font-family="Georgia" font-size="19" font-weight="400" font-style="normal" 
 >Image focal point</text>
</g>

<g fill="#212121" fill-opacity="1" stroke="#212121" stroke-opacity="1" stroke-width="1" stroke-linecap="square" stroke-linejoin="bevel" transform="matrix(0.75,0,0,0.75,325.783,42.3382)"
font-family="Georgia" font-size="19" font-weight="400" font-style="normal" 
>
<text fill="#212121" fill-opacity="1" stroke="none" xml:space="preserve" x="0" y="0.421875" font-family="Georgia" font-size="19" font-weight="400" font-style="normal" 
 >Image principal point</text>
</g>

<g fill="#212121" fill-opacity="1" stroke="#212121" stroke-opacity="1" stroke-width="1" stroke-linecap="square" stroke-linejoin="bevel" transform="matrix(0.75,0,0,0.75,325.783,59.2132)"
font-family="Georgia" font-size="19" font-weight="400" font-style="normal" 
>
<text fill="#212121" fill-opacity="1" stroke="none" xml:space="preserve" x="0" y="0.421875" font-family="Georgia" font-size="19" font-weight="400" font-style="normal" 
 >Image nodal point</text>
</g>

<g fill="none" stroke="#212121" stroke-opacity="1" stroke-width="1.6" stroke-linecap="butt" stroke-linejoin="miter" stroke-miterlimit="2" transform="matrix(0.75,0,0,0.75,-12.05,-47.6618)"
font-family="Georgia" font-size="19" font-weight="400" font-style="normal" 
>
<path vector-effect="none" fill-rule="evenodd" d="M427,149 L427,78 L638,78 L638,149 L427,149"/>
</g>
</g>
</svg>
